<svg id="Layer_1" data-name="Layer 1" xmlns="http://www.w3.org/2000/svg" viewBox="0 0 283.46 141.73"><defs><style>.cls-1{font-size:36px;font-family:Times-Roman, Times;}.cls-2{font-size:30.25px;fill:#666;}.cls-2,.cls-77{font-family:thedeadsaloon-Regular, the dead saloon;}.cls-3{fill:#3a3a3c;}.cls-4{fill:#f7f8f9;}.cls-5{fill:#69696b;}.cls-6{fill:#d4d5d7;}.cls-7{fill:#d8d9db;}.cls-8{fill:#353537;}.cls-9{fill:#656567;}.cls-10{fill:#e6e7e9;}.cls-11{fill:#edeef0;}.cls-12{fill:#f0f1f3;}.cls-13{fill:#dddee0;}.cls-14{fill:#58585a;}.cls-15{fill:#575759;}.cls-16{fill:#f1f1f2;}.cls-17{fill:#4c4c4e;}.cls-18{fill:#ebebec;}.cls-19{fill:#e5e5e7;}.cls-20{fill:#e4e4e4;}.cls-21{fill:#2e2e30;}.cls-22{fill:#404042;}.cls-23{fill:#e7e8ea;}.cls-24{fill:#e2e2e3;}.cls-25{fill:#ddddde;}.cls-26{fill:#28282a;}.cls-27{fill:#5a5a5c;}.cls-28{fill:#8c8d8f;}.cls-29{fill:#2c2c2e;}.cls-30{fill:#f1f1f3;}.cls-31{fill:#626264;}.cls-32{fill:#8d8d8e;}.cls-33{fill:#ededee;}.cls-34{fill:#f1f2f4;}.cls-35{fill:#3c3c3e;}.cls-36{fill:#464648;}.cls-37{fill:#d0d1d3;}.cls-38{fill:#3f3f41;}.cls-39{fill:#f2f2f4;}.cls-40{fill:#fbfbfb;}.cls-41{fill:#f2f2f2;}.cls-42{fill:#313133;}.cls-43{fill:#e4e5e7;}.cls-44{fill:#393939;}.cls-45{fill:#2f2f31;}.cls-46{fill:#757575;}.cls-47{fill:#2f2f2f;}.cls-48{fill:#cfd0d2;}.cls-49{fill:#f3f4f6;}.cls-50{fill:#323234;}.cls-51{fill:#ececee;}.cls-52{fill:#ededef;}.cls-53{fill:#3e3e40;}.cls-54{fill:#3b3b3d;}.cls-55{fill:#97989a;}.cls-56{fill:#f2f3f5;}.cls-57{fill:#3a3b3d;}.cls-58{fill:#3c3d3f;}.cls-59{fill:#303032;}.cls-60{fill:#b5b5b5;}.cls-61{fill:#313131;}.cls-62{fill:#3f3f3f;}.cls-63{fill:#333335;}.cls-64{fill:#fafafa;}.cls-65{fill:#bcbcbc;}.cls-66{fill:#3f4042;}.cls-67{fill:#2d2d2f;}.cls-68{fill:#5d5e60;}.cls-69{fill:#404142;}.cls-70{fill:#4e4e4e;}.cls-71{fill:#1e1e1e;}.cls-72{fill:#fdfdfd;}.cls-73{fill:#5d5d5d;}.cls-74{fill:#eee;}.cls-75{fill:#fefefe;}.cls-76{fill:#f7f7f7;}.cls-77{font-size:11.81px;fill:#999;}.cls-78{fill:none;stroke:gray;stroke-miterlimit:10;stroke-width:2.68px;}</style></defs><title>FlicksUnleashedLogo</title><text class="cls-1" transform="translate(102.5 57.83)">flicks</text><text class="cls-2" transform="translate(102.5 82.49)">unleashed</text><path class="cls-3" d="M60.92,77.46v-8.6a4.58,4.58,0,0,1,.67-2l.56-.58c.21-.55.74-.63,1.2-.81a.71.71,0,0,1,.58.16c.49-.35-.26-1.2.51-1.37a8,8,0,0,1,1.59,0c1.48,0,1.48,0,1.52,1.42a1.32,1.32,0,0,0,.16.19.61.61,0,0,0,.22.12,10,10,0,0,0,2.39-.06.75.75,0,0,0,.16-.2l.13-.23a12.2,12.2,0,0,1,2.1-2.81l1-.78a.14.14,0,0,1,.19,0h6.8l.36.06a3.18,3.18,0,0,1,1,.79,2.22,2.22,0,0,0,.61,1l.56.8c.08.37.47.58.47,1,0,.66.58.5.81.47a6.17,6.17,0,0,1,3,.33l.4.19a.64.64,0,0,1,.38.15,1.93,1.93,0,0,1,.62,1c0,.27.19.53,0,.8v8.2a1.65,1.65,0,0,1,.3,1.23c0,1.09,0,2.19,0,3.28a2.86,2.86,0,0,1-.4,1.32,2.68,2.68,0,0,1-1.21,1.32,2.42,2.42,0,0,1-.92.3,2.21,2.21,0,0,1-.65-.06,6.66,6.66,0,0,0-2.59,0,1.12,1.12,0,0,1-.35,0,1.93,1.93,0,0,0-.4-.05c-4.38.06-8.76-.18-13.14-.09l-.34.06a6.11,6.11,0,0,0-2.1,0c-.4,0-.8,0-1.2,0a3.69,3.69,0,0,0-1.36-.07,1,1,0,0,0-.23.13l-.2.06V84c-.33-.15-.71,0-1-.14l-.37,0-1-.78-.56-.85-.26-1.34v-3.4Z"/><path class="cls-4" d="M63.94,65.65l-.53.07c-.34.05-.5-.09-.46-.44l.93-.66Z"/><path class="cls-5" d="M67.54,65.86v-.21a.3.3,0,0,0,.19,0,.26.26,0,0,0,.19,0h1.22c.53-.11,1.08-.51,1.59.05v.17A5.17,5.17,0,0,1,67.54,65.86Z"/><path class="cls-6" d="M62.95,65.28a.87.87,0,0,0,.46.44c-.36.3-.95.14-1.24.59C62,65.66,62.72,65.65,62.95,65.28Z"/><path class="cls-7" d="M88.95,68.46l-.21-.8c.11-.31-.13-.58-.09-.88l.07-.11c.53,0,.28.62.6.79Z"/><path class="cls-7" d="M88.11,66.68l-.19-.21c.12-.43.4-.53.8-.38v.6h0C88.52,66.86,88.31,66.67,88.11,66.68Z"/><path class="cls-8" d="M87.52,66.27c-.1.08-.26.24-.3.22a4.25,4.25,0,0,0-2.82-.28c-.24,0-1.11.1-.68-.74a.14.14,0,0,1,0,.13c.57.38,1.2.07,1.8.16.39.06.79-.08,1.17.09l.77.25A.52.52,0,0,0,87.52,66.27Z"/><path class="cls-9" d="M86.73,65.87c-1-.12-2,.3-3-.26l1,0h.81C85.93,65.72,86.36,65.61,86.73,65.87Z"/><path class="cls-10" d="M70.74,65.69l-1.59-.05a13.51,13.51,0,0,0,2.51-2.45,1,1,0,0,1,1.06-.52A20.86,20.86,0,0,1,70.74,65.69Z"/><path class="cls-11" d="M73.93,61.84a.25.25,0,0,1-.19,0c-.13-.05-.34,0-.3-.24s.18-.11.28-.17c.39.07.83-.13,1.18.18C74.58,61.71,74.21,61.57,73.93,61.84Z"/><path class="cls-12" d="M76.73,61.48h.19c.45.08.95-.14,1.37.17H76.75c-.08,0-.12-.06-.09-.11S76.71,61.48,76.73,61.48Z"/><path class="cls-13" d="M76.73,61.48a.78.78,0,0,0,0,.17h-1.1A2,2,0,0,1,76.73,61.48Z"/><path class="cls-14" d="M63.54,82.06a1.37,1.37,0,0,1-.79-1.46c0-2.58,0-5.17,0-7.75,0-.62.24-.8.83-.79,1.59,0,3.18,0,4.77,0a.5.5,0,0,1,.16.39,3.1,3.1,0,0,0,0,1.18c0,.11,0,.22-.06.33,0,2.59,0,5.19,0,7.78,0,.3-.18.4-.45.39A40.5,40.5,0,0,1,63.54,82.06Z"/><path class="cls-14" d="M79.14,81.86c2.74-.48,4.29-2.31,5.29-4.72a1.87,1.87,0,0,1,.87-1.1,1,1,0,0,0,0-1.89c-.85-.37-.63-1.15-.89-1.75a.1.1,0,0,1,0-.09c.64-.54,1.39-.14,2.08-.24.38-.06.65.1.64.54,0,2.79,0,5.58,0,8.37,0,.84-.57,1.28-1.46,1.27-2.16,0-4.32,0-6.48,0A.24.24,0,0,1,79.14,81.86Z"/><path class="cls-15" d="M65.52,71.06c-.66,0-1.33,0-2,0s-.83-.23-.79-.82c0-.43,0-.87,0-1.29a1.44,1.44,0,0,1,1.47-1.46c1.16,0,2.32,0,3.49,0a.47.47,0,0,1,.2,0c1.25.63.38,1.76.6,2.63.12.48,0,.94-.7.94H65.52Z"/><path class="cls-15" d="M79,67.48c2.12,0,4.25,0,6.37,0,1.26,0,1.73.5,1.72,1.76,0,2.14.22,1.73-1.77,1.84a2.52,2.52,0,0,1-2.55-1.19C81.92,68.58,80.4,68.11,79,67.48Z"/><path class="cls-15" d="M75.93,82.25c-1.86,0-3.72,0-5.58,0-.59,0-.83-.17-.82-.79q0-4.33,0-8.66c0-.51.14-.75.67-.66s.3.49.21.76a7.34,7.34,0,0,0,4.17,8.68,2.13,2.13,0,0,0,.94.27C75.62,82,76.05,81.86,75.93,82.25Z"/><path class="cls-14" d="M77.37,65.68H73.87c-.22,0-.51.1-.62-.17s.11-.43.22-.63a2.15,2.15,0,0,1,2.26-1.22c1.32.11,2.66,0,4,0a2.72,2.72,0,0,1,1.83,1.72c0,.41-.3.27-.49.28C79.83,65.68,78.6,65.68,77.37,65.68Z"/><path class="cls-15" d="M75.88,67.48a9.09,9.09,0,0,0-4.61,3.36c-.31.47-.93.24-1.39.18s-.32-.51-.33-.82c-.08-2.72-.08-2.72,2.66-2.72Z"/><path class="cls-16" d="M73.32,70.27a6,6,0,0,1,8-.23c.07.2,0,.28-.2.34a1.45,1.45,0,0,1-.92-.28,5.51,5.51,0,0,0-5.56,0,2.42,2.42,0,0,1-1,.41A.37.37,0,0,1,73.32,70.27Z"/><path class="cls-17" d="M68.34,72.47v-.39h.2a6.79,6.79,0,0,1,.1,2.16c0,2.47.13,5-.09,7.42,0,.27,0,.59-.39.58-1.54-.06-3.09.25-4.61-.17,1.31,0,2.62,0,3.93,0,.33,0,.76.13.86-.4-.22-2.34,0-4.68-.09-7a1.78,1.78,0,0,1,.09-1v-.2A1.16,1.16,0,0,1,68.34,72.47Z"/><path class="cls-18" d="M82.15,70.85a5.72,5.72,0,0,1,1.16,6c-.3,0-.36-.18-.44-.38a9.38,9.38,0,0,0-1.06-5.4C81.87,70.91,81.95,70.78,82.15,70.85Z"/><path class="cls-19" d="M71.92,77.67a7.42,7.42,0,0,1-.74-2.06,1.44,1.44,0,0,1,0-1.3c.24-.6.18-1.29.58-1.83.2,0,.29.07.37.23A4.37,4.37,0,0,1,72,74.12a9.73,9.73,0,0,0,0,1.28c0,.69.43,1.33.26,2C72.22,77.6,72.12,77.72,71.92,77.67Z"/><path class="cls-8" d="M68.54,81.65q0-4.79,0-9.58c.24.2.21.47.21.73q0,4.06,0,8.12C68.74,81.18,68.77,81.45,68.54,81.65Z"/><path class="cls-20" d="M73.32,70.27l.21.21c0,.73-.47,1-1.07,1.25-.15-.07-.27-.15-.16-.33A2.17,2.17,0,0,1,73.32,70.27Z"/><path class="cls-21" d="M67.54,65.86h3.19v.21a10.59,10.59,0,0,1-3.2,0Z"/><path class="cls-22" d="M67.54,66.07h3.2A5.34,5.34,0,0,1,67.54,66.07Z"/><path class="cls-23" d="M88.11,66.68c.2-.28.4-.07.6,0,.15.33.35.66,0,1Z"/><path class="cls-24" d="M72.31,71.4l.21.27A.79.79,0,0,1,72,72.76l-.25-.29A2.19,2.19,0,0,1,72.31,71.4Z"/><path class="cls-25" d="M82.15,70.85l-.23.22c-.58.05-.82-.24-.83-.79l.25-.24A1.67,1.67,0,0,1,82.15,70.85Z"/><path class="cls-26" d="M71.16,74.3l0,1.3c-.52-.44-.15-1-.19-1.49,0,0,.07,0,.08,0A1.54,1.54,0,0,1,71.16,74.3Z"/><path class="cls-27" d="M68.34,73.67q0,4,0,8a.66.66,0,0,1-.19-.54q0-3.46,0-6.91A.66.66,0,0,1,68.34,73.67Z"/><path class="cls-27" d="M68.34,72.47v1A.69.69,0,0,1,68.34,72.47Z"/><path class="cls-3" d="M73.8,79.43,73.36,79l-1.19-1.67a5.29,5.29,0,0,1-.44-1.92,2.38,2.38,0,0,0,0-1.39c-.1-.47.2-.87.22-1.31l.53-1.09,1-1.19a6,6,0,0,1,7.56-.2l.83.79a6.41,6.41,0,0,1,1.17,5.33,11.58,11.58,0,0,1-1.39,2.45C79.1,81,76.07,81.26,73.8,79.43Z"/><path class="cls-21" d="M71.76,74.07a1.27,1.27,0,0,1,0,1.39A2.78,2.78,0,0,1,71.76,74.07Z"/><path class="cls-3" d="M75.11,59.16c-.37-.31-.8-.14-1.19-.14a1.58,1.58,0,0,1-1.23-.43.66.66,0,0,1-.43-.47c0-.7-.26-1.37-.26-2.08a2.63,2.63,0,0,1,0-.63,2.42,2.42,0,0,0-.1-1.21,3.08,3.08,0,0,1-.07-.61c0-.25,0-.51,0-.76a1.89,1.89,0,0,1,0-.45,5.4,5.4,0,0,0,0-1.17.45.45,0,0,1,.06-.42,8,8,0,0,0-.16-2.44c-.08,0-.11-.06-.09-.09s0-.06.06-.06a2,2,0,0,1,.59-1.6.46.46,0,0,0,.17,0,.46.46,0,0,1,.34,0c3.15-.14,6.3,0,9.44-.12a1.52,1.52,0,0,1,.85-.06,1.21,1.21,0,0,1,.85,1,10.27,10.27,0,0,1,0,1.74,2.78,2.78,0,0,1-.06.87c-.31.83,0,1.71-.16,2.55a16.49,16.49,0,0,0-.19,2.35,12.83,12.83,0,0,0-.21,1.92,8.3,8.3,0,0,1-.11,1.24,1.52,1.52,0,0,1-1.67,1.19c-.33,0-.74-.14-.93.31a3.61,3.61,0,0,1-.51,1.62.72.72,0,0,1-.31.14.94.94,0,0,1-.35,0,23.11,23.11,0,0,0-2.84-.07A2,2,0,0,1,75.44,61h-.07l-.07,0C74.79,60.42,75,59.78,75.11,59.16Z"/><path class="cls-28" d="M77.9,61.42H76.67a1.36,1.36,0,0,1-1,0l-.18-.24a25.38,25.38,0,0,1,4.15,0l.22,0a.22.22,0,0,1-.05.3,2.33,2.33,0,0,1-1.47.14C78.2,61.57,78.06,61.49,77.9,61.42Z"/><path class="cls-29" d="M79.66,61.15H75.52a.16.16,0,0,1-.07-.16A20.53,20.53,0,0,1,79.66,61.15Z"/><path class="cls-30" d="M75.69,61.4h1l-.18.18C76.22,61.56,75.91,61.66,75.69,61.4Z"/><path class="cls-31" d="M70.3,46c-.21-.06-.46,0-.62-.22.33-.39.79-.3,1.2-.3,4.8,0,9.6,0,14.4,0a.84.84,0,0,1,.54.17c.34.62-.1.6-.5.61-1.08.11-2.16,0-3.24,0H75.15c-.43,0-.9.09-1.27-.26Z"/><path class="cls-32" d="M83.07,46.61l-.78,0c-.3.21-.64.11-1,.11-2.87,0-5.75.1-8.62-.07l-.24-.07c.3-.31.69-.14,1-.21A4.57,4.57,0,0,1,75,46.2h6.7C82.12,46.36,82.79,45.83,83.07,46.61Z"/><path class="cls-33" d="M74.9,46.35H73.5l.38-.32h1.2C75.14,46.21,75,46.3,74.9,46.35Z"/><path class="cls-34" d="M71.7,48.2a.14.14,0,0,1,0,.16l0,1.22c-.32-.36-.12-.79-.19-1.19Z"/><path class="cls-35" d="M92.67,33.85c.46,0,.9-.91,1.38,0,.27.44.19.73-.3,1-.72.36-1.4.8-2.1,1.21a2.31,2.31,0,0,1-2,1.09A1.24,1.24,0,0,1,89.09,36a.93.93,0,0,1,.28-.53A9.64,9.64,0,0,1,92.67,33.85Z"/><path class="cls-36" d="M93.66,41.38h1.21c.4,0,1-.6,1.14.3-1.1.58-2.28.23-3.42.29a2.33,2.33,0,0,1-1.9-.36c.18-.35.54-.09.78-.22Z"/><path class="cls-37" d="M91.67,41.2c.14-.26.22-.57.59-.59C92.12,40.87,92,41.19,91.67,41.2Z"/><path class="cls-3" d="M93.41,48l.86.32.73.28c.6.52.08.94-.14,1.38l-1.33-.47a1.72,1.72,0,0,0-1.08-.32,2.9,2.9,0,0,1-1.66-.39c-.32-.2-.73-.28-.91-.68a1,1,0,0,1,1.37-.94,1.61,1.61,0,0,0,.81.33Z"/><path class="cls-38" d="M96.06,41.61c.2.1-.13.35.12.44l-.11.56a36.34,36.34,0,0,1-4.53.28.9.9,0,0,1-.82-.28,1.82,1.82,0,0,1,0-1Z"/><path class="cls-36" d="M90.72,42.6h5.35c-.22.28-.55.06-.8.19a3.49,3.49,0,0,1-1.8,0h-.2a1.26,1.26,0,0,1-1,.32c-.51-.12-1.11.18-1.52-.35A.88.88,0,0,1,90.72,42.6Z"/><path class="cls-39" d="M93.47,42.81h1.8l-.39.22C94.41,42.93,93.89,43.18,93.47,42.81Z"/><path class="cls-40" d="M76.52,72.54a1.6,1.6,0,0,1-3.19,0,1.6,1.6,0,0,1,3.19,0Z"/><path class="cls-41" d="M80.29,49.57c.53.27.45.74.42,1.2q-.11,2.31-.22,4.62c.08.4.25.81-.1,1.18-.06.08-.1.21-.18.23a13.15,13.15,0,0,1-4.79.12c-.38,0-.33-.59-.36-.95q-.17-2.33-.35-4.65a1.07,1.07,0,0,1,0-1.13l.41-.6a.71.71,0,0,1,.6-.18,16.1,16.1,0,0,0,3,.05,1.45,1.45,0,0,1,.29,0,3.09,3.09,0,0,0,1.09,0A.57.57,0,0,1,80.29,49.57Z"/><path class="cls-10" d="M85.46,46c-.58.46-1,1.18-1.74,1.38a1.47,1.47,0,0,0-.66-.79c-.39-.43-.92-.17-1.37-.27-.06-.33.26-.19.38-.3Z"/><path class="cls-42" d="M72.7,46.62c3.19-.13,6.39-.07,9.58,0,0,.15,0,.44-.16.4-2.82-.45-5.65-.06-8.48-.19C73.32,46.78,73,46.89,72.7,46.62Z"/><path class="cls-43" d="M80.31,59.39h.18a2.11,2.11,0,0,1,1.39,0A5.39,5.39,0,0,1,80,61.17Z"/><path class="cls-44" d="M74.68,50.2l0,1.13-.29,3.9h-.12a17,17,0,0,1,0-2.33,5.07,5.07,0,0,0,0-2.14C74.29,50.47,74.46,50.32,74.68,50.2Z"/><path class="cls-45" d="M75.1,49.45c.16-.28.44-.25.7-.25l4.44,0s0,0,0,.07a.27.27,0,0,1,0,.09A18.4,18.4,0,0,1,75.1,49.45Z"/><path class="cls-46" d="M75.1,49.45l5.15,0,0,.16-.22.06a1.58,1.58,0,0,1-1,0h-.22a15.18,15.18,0,0,1-3.18,0l-.61,0A1,1,0,0,1,75.1,49.45Z"/><path class="cls-47" d="M75.54,57.25h4.09v.08H75.54Z"/><path class="cls-45" d="M80.4,56.57l.1-1.18C80.74,55.81,80.84,56.21,80.4,56.57Z"/><path class="cls-37" d="M72.26,55.39c-.29-.39-.16-.82-.15-1.24A2.31,2.31,0,0,1,72.26,55.39Z"/><path class="cls-48" d="M72,52.39c-.28-.39-.15-.82-.14-1.24A2.54,2.54,0,0,1,72,52.39Z"/><path class="cls-34" d="M79.48,61.78c-.31-.39-.86,0-1.18-.37l1.58-.07A.64.64,0,0,1,79.48,61.78Z"/><path class="cls-49" d="M81.88,59.39H80.49A1.19,1.19,0,0,1,81.88,59.39Z"/><path class="cls-50" d="M69.32,45.75q0-.08,0-.16c.11-.53.54-.4.87-.4,4.58.06,9.16,0,13.74,0,.54,0,1.23-.22,1.54.54l-15.77,0Z"/><path class="cls-3" d="M85.45,45.78c-.35-.3-.77-.17-1.15-.17-4.43,0-8.85,0-13.28,0-.58,0-1.15-.38-1.72,0-.43-.19-.51-.62-.67-1A38.43,38.43,0,0,1,68.49,37,3.34,3.34,0,0,1,69,35.85a1.28,1.28,0,0,1,.22-.2,2,2,0,0,0,.44-.35l.21-.19a3,3,0,0,1,2.26-1.17,19.09,19.09,0,0,0,2.1,0h.47a5.39,5.39,0,0,1,1,.06c1,.42,1.89-.2,2.84,0a2.57,2.57,0,0,0,1.48.09,1.11,1.11,0,0,1,.3,0c.6.19,1.16-.19,1.75-.13A15.12,15.12,0,0,1,84,34a2.16,2.16,0,0,1,1.15.61l.7.69a8,8,0,0,1,1.06,1.37,2.46,2.46,0,0,1,.26,1.09c.15.71-.25,1.35-.27,2V40c0,1.22-.07,2.45,0,3.67a2,2,0,0,1-1,2.14Z"/><path class="cls-51" d="M74.9,46.35l.19-.32h5.39c.08.36-.25.2-.38.31Z"/><path class="cls-52" d="M80.09,46.35l.38-.31h1.6l-.38.3Z"/><path class="cls-53" d="M61.07,48.8l0-.2a.77.77,0,0,1,.84,0,.7.7,0,0,1,.2.15c.1.16,0,.31,0,.47a1.6,1.6,0,0,1-.06.17C61.44,49.71,61.25,49.26,61.07,48.8Z"/><path class="cls-54" d="M65.11,46.62c.55-.14.5.44.75.64.14.42-.12.56-.44.69-.51.21-1,.45-1.51.67-.3-.13-.47.25-.76.2s-.69-.07-1,0l-1-.2c0-.46.48-.32.61-.6a1.52,1.52,0,0,1,.57-.43C63.23,47.28,64,46.54,65.11,46.62Z"/><path class="cls-53" d="M62.1,48.8c.36-.37.7-.12,1,0L62.7,49c-.16-.19-.45,0-.6-.19Z"/><path class="cls-26" d="M62.11,48.8c.22,0,.45,0,.6.19l-.57.22C61.93,49.09,62.06,48.94,62.11,48.8Z"/><path class="cls-55" d="M65.3,41a4,4,0,0,1-.07,1.37.3.3,0,0,0-.14,0,1.35,1.35,0,0,1-1,0H62.48a4.73,4.73,0,0,1-1.76,0l-.42,0,0-.22a1.39,1.39,0,0,1,.27-.19,24.49,24.49,0,0,1,3.28-.08c.46,0,.88,0,1-.6A.77.77,0,0,1,65,41,.23.23,0,0,1,65.3,41Z"/><path class="cls-56" d="M64.12,42.43l1,0A.71.71,0,0,1,64.12,42.43Z"/><path class="cls-57" d="M66.29,35.22c.62.43.1.79-.11,1.12-.33.53-.58-.18-.89-.12l-1-.62-1-.63a2.56,2.56,0,0,0-.95-.6c-.24,0-.45-.1-.53-.36a.34.34,0,0,1,.2-.32c.36-.05.53-.41.84-.55a.83.83,0,0,1,.52.05,5.18,5.18,0,0,1,.82.45,10.72,10.72,0,0,0,1.22.76C65.76,34.64,66.18,34.77,66.29,35.22Z"/><path class="cls-58" d="M60.33,41.05l2-.07a2.44,2.44,0,0,1,1.58-.3c.4.1.88-.07,1.19.34a.37.37,0,0,1,0,.2c-.18.22,0,.63-.38.74-.84.14-1.7,0-2.54.11-.54.14-1.11-.07-1.66.11l-.09,0h-.1l-.05-.79Z"/><path class="cls-39" d="M60.72,42.44h1.76l-.37.18C61.65,42.54,61.15,42.75,60.72,42.44Z"/><path class="cls-40" d="M75.7,49.63h3.18A6.36,6.36,0,0,1,75.7,49.63Z"/><path class="cls-40" d="M79.09,49.63h1A.74.74,0,0,1,79.09,49.63Z"/><path class="cls-41" d="M71.08,44.41a1.16,1.16,0,0,1-.79-1.24q0-2.19,0-4.39a1.21,1.21,0,0,1,1.33-1.38c4.09,0,8.18,0,12.27,0a1,1,0,0,1,1,.42c.51,1.13.26,2.34.31,3.51,0,.56,0,1.12,0,1.68a.85.85,0,0,1,0,.45,3,3,0,0,1-1.39,1.05.74.74,0,0,1-.3,0,1.91,1.91,0,0,0-.31-.12c-3.57-.07-7.13-.11-10.69,0a4.86,4.86,0,0,1-1.14.15A.52.52,0,0,1,71.08,44.41Z"/><path class="cls-59" d="M84.26,44.6c.06.21-.1.2-.22.2H71.4a.74.74,0,0,1-.27-.07.78.78,0,0,1,0-.17,7.3,7.3,0,0,1,2.27-.25c2.86,0,5.73,0,8.59,0A6.8,6.8,0,0,1,84.26,44.6Z"/><path class="cls-60" d="M84.26,44.6l-13.1,0-.08-.16.23-.06c3.89-.32,7.79-.08,11.69-.15a1,1,0,0,1,.66.17h.22c.16-.08.3-.1.42.06A.81.81,0,0,1,84.26,44.6Z"/><path class="cls-61" d="M83.68,37c-.21.23-.48.19-.74.19H72a1.48,1.48,0,0,1-.28-.06c.27-.22.54-.09.79-.13a4.21,4.21,0,0,1,1.57-.09q4.32,0,8.64,0A1.77,1.77,0,0,1,83.68,37Z"/><path class="cls-62" d="M83.68,37H72.49c.23-.26.55-.2.84-.2h9.51C83.13,36.82,83.45,36.75,83.68,37Z"/><path class="cls-63" d="M85.27,38.21c.1-.07.33-.45.29-.06-.2,1.84,0,3.69-.1,5.53,0,.18.21.8-.39.32a.27.27,0,0,1,0-.34c0-1.47,0-2.95,0-4.42A1.45,1.45,0,0,1,85.27,38.21Z"/><path class="cls-64" d="M85.06,43.2c-.38-.69-.14-1.43-.17-2.14,0-1.08,0-2.16,0-3.23.18,0,.21.2.26.34A29,29,0,0,1,85.06,43.2Z"/><path class="cls-65" d="M85.06,43.2l.06-5a.38.38,0,0,1,.16,0c0,1.52,0,3,0,4.57,0,.35.12.74-.18,1A.19.19,0,0,1,85,43.6Z"/><path class="cls-64" d="M85,43.6l.06.22a.74.74,0,0,0,0,.18c-.25.16-.44.41-.76.44l-.42-.06c.19-.31.76-.25.75-.82C84.63,43.36,84.89,43.56,85,43.6Z"/><path class="cls-34" d="M68.28,38.2l.19-.15,0,1.72C68.14,39.27,68.37,38.72,68.28,38.2Z"/><path class="cls-56" d="M68.46,43c-.32-.42-.1-.91-.17-1.37l.18-.15Q68.47,42.21,68.46,43Z"/><path class="cls-66" d="M63.7,47.5c0,.15.11.24.09.31s-.11.12-.19.15-.1,0-.15-.08Z"/><path class="cls-67" d="M64.7,41.81l.39-.6c.19.79-.11,1.05-.91,1-1.22-.07-2.44,0-3.67,0,.49-.45,1.07,0,1.59-.17C63,41.74,63.85,42.07,64.7,41.81Z"/><path class="cls-68" d="M62.32,33.06c.2,0,.51-.42.59.13-.22.27-.17.91-.82.62l.17-.6A.21.21,0,0,0,62.32,33.06Z"/><path class="cls-69" d="M64.7,41.81c-.84.43-1.73.09-2.6.2A6.91,6.91,0,0,1,64.7,41.81Z"/><path class="cls-70" d="M82.08,42c.33.2.25.48.15.77s-.51.12-.76.12c-2.59,0-5.18,0-7.77,0-.27,0-.6.17-.8-.18S73,42,73.49,42c2.34-.21,4.68,0,7-.08A3.7,3.7,0,0,1,82.08,42Z"/><path class="cls-71" d="M82.27,39.42c.05.61-.42.39-.69.39-2.49,0-5,0-7.48,0-.18-.38,0-.49.36-.48C77.05,39.37,79.66,39.18,82.27,39.42Z"/><path class="cls-72" d="M83.67,44.38l-12.35,0c.29-.25.65-.11,1-.15a2.81,2.81,0,0,1,1.27-.09q4.57,0,9.14,0a1.8,1.8,0,0,1,1,.1Q83.67,44.29,83.67,44.38Z"/><path class="cls-73" d="M82.27,39.42c-2.39,0-4.79,0-7.18,0-.35,0-.84-.23-1,.37-.06,0-.13.06-.19.05-.34-.07-.95.26-1-.3s.6-.33.92-.34c2.51,0,5,0,7.54,0C81.69,39.2,82.07,39,82.27,39.42Z"/><path class="cls-74" d="M83.68,44.21H72.29c.23-.26.54-.2.84-.2h9.72C83.13,44,83.44,43.94,83.68,44.21Z"/><path class="cls-64" d="M81.83,40.22H72.73v-.15h9.09Z"/><path class="cls-75" d="M72.9,42.71l9.33.07c.1.31-.15.22-.27.22H73.58C73.32,43,73,43,72.9,42.71Z"/><path class="cls-76" d="M82.51,38.67c-.43.39-5.91.59-8.44.2C77,38.68,79.79,39,82.51,38.67Z"/><path class="cls-72" d="M82.08,42H73.49A37.59,37.59,0,0,1,82.08,42Z"/><path class="cls-39" d="M75.9,34h1.38c-.42.31-.89.13-1.35.14A.23.23,0,0,1,75.9,34Z"/><text class="cls-77" transform="translate(61.16 96.77) scale(2.73 1)">photography</text><path class="cls-78" d="M54.88,21.78c10.21-8.78,162.7-7.68,171.65,0,13.47,7.75,10.2,77.56,0,87.61S68.59,127,55.48,109.4,44.58,30.65,54.88,21.78Z"/></svg>