<svg id="Layer_1" data-name="Layer 1" xmlns="http://www.w3.org/2000/svg" viewBox="0 0 416.67 142.74"><defs><style>.cls-1{fill:#d04f53;}.cls-2{fill:#9ea0a3;}.cls-3{fill:#fefefe;}.cls-4{fill:#9fa1a4;}.cls-5{fill:#fd2b2a;}.cls-6{fill:#ccd001;}.cls-7{fill:#f0f0a0;}.cls-8{fill:#e1696a;}.cls-9{fill:#f4f4a7;}.cls-10{fill:#d6d85f;}.cls-11{fill:#ec938e;}.cls-12{fill:#eaea92;}.cls-13{fill:#e8ed93;}.cls-14{fill:#e4e883;}.cls-15{fill:#e76f70;}.cls-16{fill:#dfe376;}.cls-17{fill:#cfd24e;}.cls-18{fill:#e88186;}.cls-19{fill:#e06a6b;}.cls-20{fill:#dada6b;}.cls-21{fill:#f5aeab;}.cls-22{fill:#d2d756;}.cls-23{fill:#f29798;}.cls-24{fill:#e27171;}.cls-25{fill:#eb8f90;}.cls-26{fill:#e57e7a;}.cls-27{fill:#f29b98;}.cls-28{fill:#ec8c8c;}.cls-29{fill:#e47c7e;}.cls-30{fill:#e3807e;}.cls-31{fill:#e79e9d;}.cls-32{fill:#ed8f90;}.cls-33{fill:#ef908f;}.cls-34{fill:#f29696;}.cls-35{fill:#f3a3a0;}.cls-36{fill:#ea8f8d;}.cls-37{fill:#e87e7d;}.cls-38{fill:#e37a76;}.cls-39{fill:#ee8f90;}.cls-40{fill:#f19494;}.cls-41{fill:#e47879;}.cls-42{fill:#e28281;}.cls-43{fill:#ed898b;}.cls-44{fill:#eb8887;}.cls-45{fill:#e37273;}.cls-46{fill:#f4a7a4;}.cls-47{fill:#ee969c;}.cls-48{fill:#f09c9a;}.cls-49{fill:#e77f80;}.cls-50{fill:#f49a99;}.cls-51{fill:#e98585;}.cls-52{fill:#e17271;}.cls-53{fill:#ef9293;}.cls-54{fill:#e88685;}.cls-55{fill:#f19c97;}.cls-56{fill:#eb8987;}.cls-57{fill:#eb8984;}.cls-58{fill:#f29d9a;}.cls-59{fill:#ee9396;}.cls-60{fill:#eb928e;}.cls-61{fill:#f2a9a7;}.cls-62{fill:#f09995;}.cls-63{fill:#ed9192;}.cls-64{fill:#df7c7d;}.cls-65{fill:#ec8d8c;}.cls-66{fill:#ec8e8c;}.cls-67{fill:#ee9393;}.cls-68{fill:#ec8b88;}.cls-69{fill:#f3a7a7;}.cls-70{fill:#ee9a9c;}.cls-71{fill:#f3999e;}.cls-72{fill:#fdfdfd;}.cls-73{fill:#cbd03d;}.cls-74{fill:#f7f6b4;}.cls-75{fill:#eb9c1d;}.cls-76{fill:#eb8c8b;}.cls-77{fill:#ea9b1d;}.cls-78{fill:#e58028;}.cls-79{fill:#ed8c8a;}.cls-80{fill:#f09698;}.cls-81{fill:#df6f71;}.cls-82{fill:#dd6569;}.cls-83{fill:#ef9092;}.cls-84{fill:#ef8e8a;}.cls-85{fill:#ee9599;}.cls-86{fill:#e88484;}.cls-87{fill:#f19b99;}.cls-88{fill:#ee9e98;}.cls-89{fill:#e98483;}.cls-90{fill:#e77e7f;}.cls-91{fill:#ed8a81;}.cls-92{fill:#e77f7d;}.cls-93{fill:#f09492;}.cls-94{fill:#e47472;}.cls-95{fill:#f4efa5;}.cls-96{fill:#f19493;}.cls-97{fill:#e99e1f;}.cls-98{fill:#e8da8f;}.cls-99{fill:#e27b16;}.cls-100{fill:#df6165;}.cls-101{fill:#e67a7b;}.cls-102{fill:#e67e7d;}.cls-103{fill:#e57876;}.cls-104{fill:#f09494;}.cls-105{fill:#e88687;}.cls-106{fill:#ef8d8f;}.cls-107{fill:#ef9692;}.cls-108{fill:#eb8889;}.cls-109{fill:#f09794;}.cls-110{fill:#f9f6b7;}.cls-111{fill:#fdfdc6;}.cls-112{font-size:20.6px;font-family:MyriadPro-Regular, Myriad Pro;}.cls-113{letter-spacing:0em;}.cls-114{letter-spacing:0em;}.cls-115{letter-spacing:0em;}.cls-116{letter-spacing:0.01em;}.cls-117{letter-spacing:-0.01em;}.cls-118{letter-spacing:0.01em;}.cls-119{letter-spacing:0.01em;}.cls-120{letter-spacing:-0.01em;}.cls-121{stroke:red;stroke-miterlimit:10;stroke-width:4px;}</style></defs><title>Design2</title><g id="a5mGFu"><path class="cls-1" d="M296.51,126.64c-.77-.23-.25-.67-.11-1a2.19,2.19,0,0,0-.66-2.89c-1.23-1.06-2.46-2.13-3.63-3.26a5.34,5.34,0,0,1-1.83-4.83c.13-.78-.21-1-.83-1.2a21.74,21.74,0,0,1-9.88-6.79c-2.41-3.1-3.63-6.57-2.63-10.53,1.34-5.34,6.49-7,10.95-5.34.56.21,1,.51.93,1.17a2.11,2.11,0,0,1-.05,1.74,1.57,1.57,0,0,1-2.06.92l-.48-.13c-3.79-1-6.28,1.39-5.57,5.26.65,3.49,2.84,5.87,5.66,7.77a23.41,23.41,0,0,0,5.3,2.52,1.66,1.66,0,0,0,1.1.14c4.39-1.5,8.41-3.48,10.69-7.87a8.06,8.06,0,0,0,.76-4.87,3.61,3.61,0,0,0-3.6-3.18,8,8,0,0,0-1.75.12,1.34,1.34,0,0,1-1.54-.56A2,2,0,0,1,297,92c-.06-.91.4-1.33,1.28-1.51,6.91-1.43,10.75,4.12,10,9.62-.72,4.94-3.73,8.35-7.78,10.95a26.64,26.64,0,0,1-6.09,2.86,1.61,1.61,0,0,0-1,2.6,10.53,10.53,0,0,0,2.46,2.64c.78.7,1.61,1.34,2.33,2.08a4.8,4.8,0,0,1,.71,6c-.2.35-.38.53-.77.35A2.55,2.55,0,0,1,296.51,126.64Z" transform="translate(-84.41 -88.69)"/><path class="cls-2" d="M296.51,126.64a2.63,2.63,0,0,1,1.55.89,2.63,2.63,0,0,0-.85,3c.52,1.83-.82,3.86-2.63,4.59a4.37,4.37,0,1,1,.23-7.91C295.74,127.76,296.23,127.66,296.51,126.64Z" transform="translate(-84.41 -88.69)"/><path class="cls-2" d="M297,92l.51,1.73c-.5.51-1.24.45-1.82.76-.43.23-.57.47-.23.87a6,6,0,0,0,1.9,1.78,2,2,0,0,1,1.29,2.53,2.41,2.41,0,0,1-2.45,1.57,2.3,2.3,0,0,1-1.77-2.63,1.76,1.76,0,0,0-.57-1.68,11,11,0,0,0-3.2-2.17,6.62,6.62,0,0,1-2.14-1l.3-1.72a23.6,23.6,0,0,1,3.69,1.5.68.68,0,0,0,.8,0A15.51,15.51,0,0,1,297,92Z" transform="translate(-84.41 -88.69)"/><path class="cls-3" d="M292.95,133.39a2.29,2.29,0,1,1,2.33-2.26A2.36,2.36,0,0,1,292.95,133.39Z" transform="translate(-84.41 -88.69)"/><path class="cls-4" d="M289.39,101a1.91,1.91,0,0,1-1.81-1.4,1.66,1.66,0,0,1,.91-2.11,4.58,4.58,0,0,0,2-1.63c.49-.68.9-.48,1.43-.1.74.52.16.86-.17,1.16a1.59,1.59,0,0,0-.5,1.85A1.85,1.85,0,0,1,289.39,101Z" transform="translate(-84.41 -88.69)"/></g><path class="cls-5" d="M160.17,176.85l-.88.94a12.51,12.51,0,0,1-1.82,1.48h0a6.25,6.25,0,0,0-.53.34l-.86.53a17.3,17.3,0,0,1-2.72,1.22c-.25.07-.32.22-.12.44s.27.22.39.34h0a10.42,10.42,0,0,1,1.48,1.47,13.69,13.69,0,0,1,2.22,3.43,3.72,3.72,0,0,1,.29.75,12.85,12.85,0,0,1,.78,4.52,21.18,21.18,0,0,1-.25,2.27,13.93,13.93,0,0,1-.87,3,9.45,9.45,0,0,1-1.13,2,14.9,14.9,0,0,1-3.24,3.38.83.83,0,0,1-.15.08c-.26.19-.54.34-.79.54s-.58.34-.83.57-.7.32-1,.56l-.7.32c-.82.41-1.69.7-2.53,1-.43.06-.81.39-1.28.28a.62.62,0,0,1-.14-.48c0-1.07,0-2.13,0-3.2a.68.68,0,0,1,.42-.73,3.69,3.69,0,0,1,.78-.32,2.52,2.52,0,0,0,1.12-.47.72.72,0,0,1,.37-.22,1.15,1.15,0,0,0,.43-.16.77.77,0,0,0,.43-.34.71.71,0,0,1,.3-.18A6.65,6.65,0,0,0,151,199c.5-.69,1.2-1.2,1.73-1.87a8,8,0,0,0,.95-8.32,2.18,2.18,0,0,0-.44-.69,1,1,0,0,1-.29-.49.83.83,0,0,0-.21-.46c-.27-.35-.58-.67-.83-1a.8.8,0,0,0-.57-.34.74.74,0,0,1-.33-.27,3.71,3.71,0,0,0-1.34-1.08,3.24,3.24,0,0,1-.81-.57,18.67,18.67,0,0,0-2.44-1.31.75.75,0,0,1-.39-.81c.1-.88,0-1.76.06-2.64,0-.58.1-.68.68-.69.35,0,.69-.09,1-.13a1.4,1.4,0,0,1,.29,0,2.61,2.61,0,0,0,1.08-.11l.13,0a4.79,4.79,0,0,0,1.7-.34.65.65,0,0,1,.32-.11,7.14,7.14,0,0,0,2.36-.76l.36-.16a3.2,3.2,0,0,0,1-.6c.51-.29.9-.74,1.4-1a4,4,0,0,0,1.1-1l.08-.08a1,1,0,0,0,.28-.41l.06-.09a1.24,1.24,0,0,0,.3-.47l.07-.1a5.26,5.26,0,0,0,.82-2.34,13.65,13.65,0,0,0,0-4.94,1.76,1.76,0,0,0-.16-.93,6.75,6.75,0,0,0-1.12-2.23,1.48,1.48,0,0,1-.32-.47,1.21,1.21,0,0,0-.54-.62,12.8,12.8,0,0,0-2.12-1.72,15.24,15.24,0,0,0-5.77-2c-.54-.08-1.08-.18-1.63-.22-.27-.11-.64.09-.82-.28-.1-1.12,0-2.25,0-3.37a.56.56,0,0,1,.19-.42,2.74,2.74,0,0,1,1-.24,38.47,38.47,0,0,0,7.77-2.12c.71-.28,1.4-.62,2.1-.94a2.56,2.56,0,0,0,1-.51c1-.64,2-1.28,2.88-2a4.92,4.92,0,0,0,1.27-1.13,6.68,6.68,0,0,1,.87-.92,1.13,1.13,0,0,0,.53-.57l.07-.1a4.54,4.54,0,0,0,.87-1.21l.07-.1a2,2,0,0,0,.47-1,12.91,12.91,0,0,0,1.13-3c.11-.54.09-.59-.47-.51a40.92,40.92,0,0,1-6.87.45,33.81,33.81,0,0,1-8.66-1.16,12.64,12.64,0,0,1-1.9-.59,2.47,2.47,0,0,0-1-.37,1,1,0,0,1-.6-.29.82.82,0,0,1-.19-.6c0-1.18-.06-2.37,0-3.55.17-2.26.15-4.52.16-6.79a.76.76,0,0,1,.16-.61.39.39,0,0,1,.14-.09h1a2.12,2.12,0,0,0,.64-.13,4.84,4.84,0,0,0,2-.71,4.16,4.16,0,0,0,1.63-1.67h0a2.23,2.23,0,0,0,.35-.78c.16-.13,0-.37.18-.5a9.26,9.26,0,0,0,.43-2.35c0-.17,0-.34.06-.51.14-1.27.31-2.54.53-3.8a27.14,27.14,0,0,1,.8-3.18,13.34,13.34,0,0,1,1.42-3.25,8,8,0,0,1,2.79-2.9,7.07,7.07,0,0,1,4-.93,13.38,13.38,0,0,1,4.78,1.22l.68.32a25.92,25.92,0,0,1,2.89,1.64,5.24,5.24,0,0,1,1,.69,10.7,10.7,0,0,0,1.13.71h0a10,10,0,0,0,1.58,1l.76.35c.88.43,1.79.77,2.68,1.15,1.16.35,2.3.76,3.48,1,.92.23,1.84.44,2.78.59s2.16.35,3.25.43,2.35.17,3.54.21,2.53,0,3.8,0a30.39,30.39,0,0,0,3.49-.22c.9-.06,1.8-.17,2.69-.3l1.27-.21c.21,0,.37,0,.21.27l-.16.18c-.47.66-1,1.25-1.48,1.92l-.52.61c-.61.73-1.21,1.45-1.83,2.17h0c-.66.85-1.43,1.6-2.15,2.4-.49.54-1,1.07-1.51,1.59l-.69.69c-.77.74-1.55,1.46-2.33,2.2-.54.5-1.12,1-1.67,1.46l-.18.16c-.83.62-1.61,1.32-2.43,2-.11.08-.23.09-.33.17l-.7.59-2.37,1.65a45.51,45.51,0,0,1-4.91,2.94,49.3,49.3,0,0,1-6.54,2.85c-.72.26-1.45.49-2.19.7a.39.39,0,0,0-.31.4,20.4,20.4,0,0,1-.4,2.35,15.58,15.58,0,0,1-.86,2.68,17.88,17.88,0,0,1-1.65,3.14c-.13.16-.15.4-.34.53s-.34.47-.51.7-.55.62-.78,1a5.05,5.05,0,0,1-.74.76l-.34.35c-.25.25-.5.48-.77.71h0a7.89,7.89,0,0,1-.86.71,14.46,14.46,0,0,1-2.16,1.48l-.54.34h0a16.15,16.15,0,0,1-1.83,1l-1.12.53c-.3.1-.58.26-.89.34l-1.26.49c-.08,0-.22,0-.23.14s.13.19.22.24a20.64,20.64,0,0,1,1.8,1.13c.44.37.92.69,1.33,1.1a7.91,7.91,0,0,1,.69.72,11.45,11.45,0,0,1,2.14,3,10.94,10.94,0,0,1,1.27,4,17.19,17.19,0,0,1-.06,4.36,13.9,13.9,0,0,1-1,3.64c-.16.35-.34.68-.51,1s-.3.6-.5.87c-.1.1-.11.24-.21.34h0A7.5,7.5,0,0,1,160.17,176.85Z" transform="translate(-84.41 -88.69)"/><path class="cls-5" d="M125.21,163.45a9.51,9.51,0,0,1,.87-2.17,20.15,20.15,0,0,1,1.3-2l.17-.18c.31-.3.56-.65.85-1a12.58,12.58,0,0,1,1.34-1.2,14.47,14.47,0,0,1,2.33-1.52c.09,0,.21-.09.2-.2s-.17-.1-.27-.13a36.7,36.7,0,0,1-3.74-1.54c-.72-.46-1.51-.79-2.2-1.29-.15,0-.21-.14-.33-.19a21.52,21.52,0,0,1-2-1.48h0a20.39,20.39,0,0,1-2.51-2.44l-.18-.25c-.4-.48-.74-1-1.15-1.47l-.52-.86c-.32-.61-.66-1.21-1-1.84a20.4,20.4,0,0,1-1.08-3.24c-.19-.77-.29-1.55-.42-2.32a.64.64,0,0,0-.56-.58,33.47,33.47,0,0,1-3.57-1.2c-.92-.36-1.81-.78-2.71-1.17-1.1-.51-2.18-1.06-3.23-1.65l-.69-.34a2.93,2.93,0,0,0-.6-.36h0c-.22-.16-.49-.25-.71-.42-.07,0-.14,0-.17-.09-.49-.32-1-.67-1.47-1h0a5.27,5.27,0,0,0-.52-.35l-.52-.34c-.48-.4-1-.72-1.5-1.12a.9.9,0,0,1-.51-.34c-.24-.16-.44-.38-.69-.54h0c-.61-.49-1.21-1-1.84-1.47-1-.91-2-1.84-3.11-2.72-.79-.77-1.62-1.51-2.37-2.33-.35-.4-.75-.76-1.12-1.14h0c-.22-.29-.5-.53-.72-.81L90,119.9h0c-.61-.7-1.23-1.38-1.83-2.09l-2.86-3.48c-.21-.24-.37-.51-.58-.75s-.16-.22-.06-.35a.27.27,0,0,1,.32-.06,10.28,10.28,0,0,0,1,.2,29,29,0,0,0,3.9.47c1.61.08,3.23.25,4.85.18a62,62,0,0,0,6.25-.45c1.28-.18,2.57-.36,3.82-.65a22.85,22.85,0,0,0,3.3-.93c1-.35,1.91-.69,2.83-1.12l1.85-.88a31.09,31.09,0,0,0,2.88-1.82l1.82-1.13c.42-.26.87-.47,1.31-.69a12.77,12.77,0,0,1,7.06-1.67,6.56,6.56,0,0,1,4.66,2.63,6.2,6.2,0,0,1,.44.52,15.68,15.68,0,0,1,2.22,5c.36,1.29.55,2.61.79,3.92.1.51.11,1,.16,1.54.07.73.17,1.46.23,2.19.12.22,0,.48.17.7h0c.13.15,0,.37.16.53l.36.94a4.74,4.74,0,0,0,1.65,1.83h0a4.81,4.81,0,0,0,.68.36,5.13,5.13,0,0,0,1.5.35,8.4,8.4,0,0,0,1.53.15.6.6,0,0,1,.24.49c0,.13,0,.26,0,.39-.06,2.3.08,4.59.1,6.89,0,1.07,0,2.13.07,3.2a.88.88,0,0,1-.16.65,1.45,1.45,0,0,1-.37.26c-.19.07-.41.07-.56.23-.93.36-1.9.61-2.86.87a28.55,28.55,0,0,1-3.92.74,18.9,18.9,0,0,1-2.55.24c-1.11,0-2.23.14-3.34.07-.88-.05-1.77,0-2.64-.12s-1.87-.21-2.79-.35c-.51-.08-.55,0-.44.5a13.23,13.23,0,0,0,2.18,4.7,17,17,0,0,0,3.5,3.6,2.82,2.82,0,0,1,.46.4,1.32,1.32,0,0,0,.47.41,18.88,18.88,0,0,0,2.52,1.49,1,1,0,0,0,.37.1c.54.18,1,.46,1.55.68a34.21,34.21,0,0,0,5.32,1.68c.28.07.56.15.84.2a11.29,11.29,0,0,0,1.43.29q.66.12,1.3.27a.64.64,0,0,1,.23.54c0,1,0,2,0,3a.64.64,0,0,1-.14.44.46.46,0,0,1-.32.12A17.4,17.4,0,0,0,134.4,159l-.21.07a6.55,6.55,0,0,0-2.22,1.42,2.16,2.16,0,0,1-.57.55,2.45,2.45,0,0,0-1,1.16,9.66,9.66,0,0,0-1.45,3.4,11.52,11.52,0,0,0-.19,4,9.58,9.58,0,0,0,1.51,4,3.91,3.91,0,0,0,1.74,1.87.86.86,0,0,1,.23.2,1.93,1.93,0,0,0,.45.37,8.31,8.31,0,0,0,2.79,1.34c.29.06.55.27.87.22l.19,0a1.51,1.51,0,0,0,.6.15l.12,0c.22.17.5.08.75.16l.13.06a14.53,14.53,0,0,0,1.79.25,5.06,5.06,0,0,1,1.78.28,1.11,1.11,0,0,1,.09.59c0,1,0,1.91,0,2.87a.76.76,0,0,1-.43.74c-.61.4-1.28.68-1.92,1a1.08,1.08,0,0,0-.53.27l-.1.06a.88.88,0,0,0-.46.33c-.17.14-.29.33-.51.4a3.14,3.14,0,0,0-1.09.91,2.67,2.67,0,0,1-.73.73,4,4,0,0,0-1.09,1.36l-.07.1a1.37,1.37,0,0,0-.31.59c-.12.48-.34.92-.49,1.39a7,7,0,0,0-.32,1.87,8.34,8.34,0,0,0,.66,3.81,4.07,4.07,0,0,0,.62,1.25l.08.1a4.47,4.47,0,0,0,1,1.31l.08.09a7.2,7.2,0,0,0,1.39,1.27,4.42,4.42,0,0,0,1.36.87c.48.22.91.53,1.38.75a6.74,6.74,0,0,0,1.5.69,1.28,1.28,0,0,1,.5.23.9.9,0,0,1,.1.5c0,1.11-.06,2.22.06,3.32a.51.51,0,0,1-.11.4c-.28.18-.51,0-.76-.08a7.32,7.32,0,0,1-1-.34l-2-.87c-.34-.19-.7-.34-1-.52h0c-.52-.32-1.07-.6-1.57-1h0a2.05,2.05,0,0,0-.53-.34,16.17,16.17,0,0,1-3-2.8,12.59,12.59,0,0,1-2.2-4,13.9,13.9,0,0,1-.65-4.84,10.83,10.83,0,0,1,.65-3.35,1.05,1.05,0,0,0,0-.17,15.59,15.59,0,0,1,1.81-3.33,1.48,1.48,0,0,1,.51-.69c.32-.35.65-.69,1-1s.72-.61,1-1l.18-.17c.27-.2.09-.31-.09-.39-.33-.14-.67-.25-1-.38-.49-.2-1-.44-1.43-.68a15,15,0,0,1-4.77-3.89,11.87,11.87,0,0,1-1.92-3.32,15.2,15.2,0,0,1-1-3.7,18.09,18.09,0,0,1-.05-3.41A11.22,11.22,0,0,1,125.21,163.45Z" transform="translate(-84.41 -88.69)"/><path class="cls-6" d="M141.21,157.26a.62.62,0,0,0,.1-.45c0-1,0-2,0-2.94a.84.84,0,0,0-.15-.57,22.78,22.78,0,0,0,0-2.52c-.16-2.67-.1-5.35-.18-8-.06-1.91-.16-3.81-.14-5.72a6.27,6.27,0,0,0,0-1.38c0-1.08-.09-2.16-.09-3.25,0-2-.08-4,0-6.07a3.58,3.58,0,0,0-.16-.93,2.36,2.36,0,0,1-.07-.9c0-.94,0-1.88,0-2.82-.07-2.08-.15-4.16-.13-6.25,0-1.1-.09-2.19-.16-3.29,0-.21-.15-.28-.33-.35a13.74,13.74,0,0,1-3.22-1.84,11.13,11.13,0,0,1-3-3.49c0-.34-.25-.57-.38-.85l-.06-.11c-.14-.46-.32-.9-.5-1.35l0-.14a12.69,12.69,0,0,1,0-6.91A9.79,9.79,0,0,1,134.11,94a10.93,10.93,0,0,1,2.67-2.84,11.39,11.39,0,0,1,3.79-2,12.14,12.14,0,0,1,4.44-.44,14.2,14.2,0,0,1,3.34.74c.23.08.42.26.68.27a11.68,11.68,0,0,1,4,3,12.82,12.82,0,0,1,1.87,2.85,10.47,10.47,0,0,1,.85,2.6,19.3,19.3,0,0,1,.19,2.5,10.93,10.93,0,0,1-.36,2.85,9.51,9.51,0,0,1-.87,2.41,12.93,12.93,0,0,1-2.46,3.31c-.23.23-.5.39-.74.6-.46.21-.77.62-1.22.87-.69.38-1.41.69-2.12,1a.62.62,0,0,0-.42.71c.1,2.56-.13,5.11-.18,7.67,0,1.57,0,3.15-.1,4.72,0,.17.06.34.05.52a2.12,2.12,0,0,0-.11.77c0,1.43,0,2.87-.06,4.29,0,1-.11,2-.13,3a23.93,23.93,0,0,0,.07,4.15c0,1.62.08,3.25,0,4.86-.14,2.31-.12,4.63-.17,6.94,0,1.31-.17,2.62-.15,3.94a.84.84,0,0,0-.15.56c0,1.09,0,2.18-.05,3.27a24,24,0,0,0-.16,2.46c0,.59,0,1.19,0,1.78a2.06,2.06,0,0,1-.11.85.53.53,0,0,0,0,.34,9.71,9.71,0,0,1,0,2.75c0,2.28.09,4.57,0,6.85-.07,1.19-.12,2.39-.17,3.59a12.25,12.25,0,0,0,0,2.76c-.07.88,0,1.76-.07,2.63a3.68,3.68,0,0,0,.08,1.37c0,2.81-.15,5.61-.19,8.42,0,1.89-.16,3.78-.15,5.68,0,1.49-.12,3-.1,4.47,0,.29-.08.57-.1.86a2.84,2.84,0,0,0-.13,1.11c0,1.05,0,2.1,0,3.15a2.46,2.46,0,0,0,.05.43c0,3-.19,6-.17,9,0,.33-.15.47-.48.46-.58,0-1.16,0-1.74,0-.37,0-.49-.16-.48-.5,0-.83,0-1.65,0-2.48-.07-2-.24-4.07-.17-6.11a6.32,6.32,0,0,1-.07-.64c.18-.34,0-.68,0-1,0-.91,0-1.82,0-2.73a.94.94,0,0,0-.08-.55,18,18,0,0,1,0-1.85,6.26,6.26,0,0,1,0-.91c0-1.89-.09-3.78-.12-5.68,0-1,0-2-.07-2.94s0-1.85-.13-2.76a2.75,2.75,0,0,1,0-.6c0-1.5-.06-3-.13-4.5a.82.82,0,0,1,0-.26,1.09,1.09,0,0,0,.11-.41,20.82,20.82,0,0,0-.11-3.41c0-.1,0-.2,0-.3-.07-1.52-.11-3-.1-4.56s-.06-3-.11-4.47c0-1.13,0-2.26-.07-3.38-.17-2.53-.17-5.06-.18-7.59,0-.33,0-.66-.07-1A.63.63,0,0,1,141.21,157.26Z" transform="translate(-84.41 -88.69)"/><path class="cls-7" d="M142.44,206.33c.19.12.16.32.17.51,0,1.31-.05,2.63.08,3.94.16,1.56.07,3.12.09,4.68,0,.4.13.54.52.52s1,0,1.56,0c.33,0,.42-.13.42-.44,0-1.17,0-2.35,0-3.52.09-1.82.08-3.64.13-5.46,0-.18.13-.21.26-.24.43,0,.79-.29,1.22-.27a2.19,2.19,0,0,1-.87.34.51.51,0,0,0-.43.55c0,1.79-.08,3.59-.11,5.38,0,1.11,0,2.23-.06,3.34,0,.33-.16.46-.48.47-.66,0-1.33,0-2,0-.28,0-.4-.23-.4-.51q0-.78,0-1.56c0-2.33-.25-4.65-.18-7,0-.37-.08-.71-.55-.8-.32-.06-.63-.19-.94-.28-.1,0-.19-.06-.22-.18C141.3,205.95,141.84,206.27,142.44,206.33Z" transform="translate(-84.41 -88.69)"/><path class="cls-8" d="M108.18,112c-.25.34-.67.3-1,.4-.92.3-1.88.51-2.83.72-.57.12-1.16.21-1.73.31-1,.17-2,.26-3.06.43-.69.11-1.38.05-2.07.13a31.77,31.77,0,0,1-5.07.08c-1.36-.06-2.73-.1-4.09-.28a13.6,13.6,0,0,0-2-.22c-.14,0-.3,0-.36-.15.34-.14.65.08,1,.06,1.35.1,2.7.35,4.06.35,1.12,0,2.23.19,3.34.14,2.18-.11,4.36-.13,6.53-.44,1.36-.19,2.72-.39,4.05-.7a17.52,17.52,0,0,0,2.85-.78A1.32,1.32,0,0,1,108.18,112Z" transform="translate(-84.41 -88.69)"/><path class="cls-9" d="M140.26,112a6.94,6.94,0,0,1,.14,1.67c.05,1.82,0,3.65.06,5.47s.19,3.9.16,5.85a2.18,2.18,0,0,0,.06.38c-.07.11-.16.09-.25,0l-1,0c-.16,0-.32,0-.43-.15.34-.09.65.08,1,.08s.37-.08.41-.36a9.33,9.33,0,0,0,0-1.49c0-1.29,0-2.58,0-3.86-.06-1.5-.06-3-.09-4.5,0-.85-.1-1.69-.16-2.54a.71.71,0,0,0-.47-.69c-.12,0-.26-.06-.32-.2A1.43,1.43,0,0,1,140.26,112Z" transform="translate(-84.41 -88.69)"/><path class="cls-10" d="M147.38,125.38c0-1.55,0-3.1,0-4.64s.11-3.11.18-4.67c.06-1.21,0-2.43.06-3.64,0-.46.17-.71.6-.79.12-.06.25-.11.37,0-.66.18-.84.61-.8,1.28a22.3,22.3,0,0,1,0,2.82c-.17,2.57-.15,5.13-.18,7.7a7.63,7.63,0,0,1-.08,1.12,1.55,1.55,0,0,0,.1.8,0,0,0,0,1,0,0A.18.18,0,0,1,147.38,125.38Z" transform="translate(-84.41 -88.69)"/><path class="cls-11" d="M199.37,113.73a37.73,37.73,0,0,1-5.87.31,45.5,45.5,0,0,1-5.05-.27c-1.06-.11-2.11-.28-3.17-.41a12.25,12.25,0,0,1-2-.44c-.26-.08-.6.1-.77-.24a7.18,7.18,0,0,1,1.74.31c1.6.29,3.21.5,4.84.68s3.38.16,5.06.2c1.22,0,2.46,0,3.68-.09a10,10,0,0,1,1.55-.14s0,0,0,.05Z" transform="translate(-84.41 -88.69)"/><path class="cls-12" d="M155.63,98.08A14.67,14.67,0,0,0,155,96a17.34,17.34,0,0,0-1-1.85,10.51,10.51,0,0,0-1.73-2.12,10.31,10.31,0,0,0-2.37-1.78,2.46,2.46,0,0,1-.84-.54c.43-.11.7.24,1,.4A12.41,12.41,0,0,1,155,95.43a10.45,10.45,0,0,1,.86,2.91C155.59,98.37,155.76,98.12,155.63,98.08Z" transform="translate(-84.41 -88.69)"/><path class="cls-13" d="M140.26,112a5.05,5.05,0,0,0-1-.34,7,7,0,0,1-1.42-.7,10.79,10.79,0,0,1-2.92-2.4,11.64,11.64,0,0,1-2.3-4,2,2,0,0,1,0-.34.11.11,0,0,1,.17,0h0a11.9,11.9,0,0,0,.52,1.39h0c.13.3.31.57.44.87a7.89,7.89,0,0,0,1.39,1.95,15.67,15.67,0,0,0,1.59,1.53,15.21,15.21,0,0,0,3.16,1.8C140,111.77,140.24,111.74,140.26,112Z" transform="translate(-84.41 -88.69)"/><path class="cls-14" d="M136.78,91.13c-.07.27-.32.39-.51.55a11.45,11.45,0,0,0-3.47,5.18,1,1,0,0,0,0,.17,6.84,6.84,0,0,0-.38,1.33c0,.07,0,.18-.14.15a7,7,0,0,1,.63-2.44,11.26,11.26,0,0,1,3.62-4.87A.33.33,0,0,1,136.78,91.13Z" transform="translate(-84.41 -88.69)"/><path class="cls-15" d="M157.3,197.55a5.51,5.51,0,0,1,.47-1.51,11.48,11.48,0,0,0,.45-2.28,12.53,12.53,0,0,0-.26-4.67,5.38,5.38,0,0,1-.32-1.29,3,3,0,0,1,.49,1.35,11.62,11.62,0,0,1,.37,2.94,14.12,14.12,0,0,1-.64,4.11A4.45,4.45,0,0,1,157.3,197.55Z" transform="translate(-84.41 -88.69)"/><path class="cls-16" d="M151.46,109.8a11.8,11.8,0,0,0,1.66-1.66,10,10,0,0,0,1.2-1.73,12.22,12.22,0,0,0,1.15-2.77c.08,0,0-.24.18-.18a9,9,0,0,1-.92,2.61,12.57,12.57,0,0,1-1.49,2.25,5.8,5.8,0,0,1-1.77,1.64A.13.13,0,0,1,151.46,109.8Z" transform="translate(-84.41 -88.69)"/><path class="cls-17" d="M132.26,98.51c.23-.39.14-.86.35-1.25,0-.09.08-.18.17-.23a11.09,11.09,0,0,1-.34,1.41,1.34,1.34,0,0,0-.1.55c0,.61,0,1.21,0,1.82a10.07,10.07,0,0,0,.4,3,2.27,2.27,0,0,1,0,.34h-.17a10.94,10.94,0,0,1-.53-3.56A6.66,6.66,0,0,1,132.26,98.51Z" transform="translate(-84.41 -88.69)"/><path class="cls-18" d="M125.21,163.45c-.1.55-.19,1.1-.3,1.64a15.15,15.15,0,0,0-.08,4.23,10.88,10.88,0,0,0,.86,3.46.5.5,0,0,1,0,.34,2.54,2.54,0,0,1-.5-1.19,14.92,14.92,0,0,1-.68-4.51,14.16,14.16,0,0,1,.51-3.84A.17.17,0,0,1,125.21,163.45Z" transform="translate(-84.41 -88.69)"/><path class="cls-19" d="M155.29,111.72a15.72,15.72,0,0,1-.5,2.16,29.87,29.87,0,0,0-.62,3.9,3.7,3.7,0,0,1-.17.92,1.29,1.29,0,0,1,0-.73,32,32,0,0,1,1-5.44C155,112.25,155,111.93,155.29,111.72Z" transform="translate(-84.41 -88.69)"/><path class="cls-20" d="M155.65,103.47l-.18.18c.06-.61.26-1.19.3-1.82a15.73,15.73,0,0,0-.11-3.31c0-.14,0-.29,0-.43l.18.26a11.89,11.89,0,0,1,.16,3.38A5.38,5.38,0,0,1,155.65,103.47Z" transform="translate(-84.41 -88.69)"/><path class="cls-21" d="M195.89,122.33c0-.14.09-.21.16-.29L199,118.9c.18-.19.24-.5.55-.56a.39.39,0,0,1-.11.35l-3.26,3.48C196.1,122.25,196,122.35,195.89,122.33Z" transform="translate(-84.41 -88.69)"/><path class="cls-22" d="M151.46,109.8V110a8.91,8.91,0,0,1-2.86,1.67h-.37a.85.85,0,0,1,.2-.15,8.22,8.22,0,0,0,2.74-1.58A.83.83,0,0,1,151.46,109.8Z" transform="translate(-84.41 -88.69)"/><path class="cls-23" d="M153.64,182.15a.79.79,0,0,1-.63-.47c-.19-.31.19-.34.34-.39a15.13,15.13,0,0,0,1.67-.69,3.3,3.3,0,0,1,1.06-.46c-.13.27-.42.33-.65.44a15.15,15.15,0,0,1-1.81.77c-.44.14-.46.21-.13.55C153.55,182,153.67,182,153.64,182.15Z" transform="translate(-84.41 -88.69)"/><path class="cls-24" d="M94.54,124.5a3,3,0,0,1,1.07.81c.65.59,1.32,1.16,2,1.73a.55.55,0,0,1,.09.15.07.07,0,0,1-.12,0A29.57,29.57,0,0,1,94.54,124.5Z" transform="translate(-84.41 -88.69)"/><path class="cls-25" d="M199.37,113.73v-.08c1.17-.2,2.37-.21,3.54-.49a2.74,2.74,0,0,1,.56,0c.08,0,.19,0,.22.08s0,.21-.16.25c0-.31-.18-.2-.35-.17A26,26,0,0,1,199.37,113.73Z" transform="translate(-84.41 -88.69)"/><path class="cls-26" d="M132.24,184.65a4.81,4.81,0,0,1-.64,1.14,13.05,13.05,0,0,0-1,2c0,.09-.07.16-.17.16a5.23,5.23,0,0,1,.64-1.63c.3-.55.66-1.06,1-1.6A.22.22,0,0,1,132.24,184.65Z" transform="translate(-84.41 -88.69)"/><path class="cls-27" d="M121.22,148.15c.16,0,.25.13.34.24a15.25,15.25,0,0,0,2.11,2.06s0,.1.06.15a.28.28,0,0,1-.28-.08l-2.17-2.12A.25.25,0,0,1,121.22,148.15Z" transform="translate(-84.41 -88.69)"/><path class="cls-28" d="M188.26,129l2.52-2a.27.27,0,0,1,.24-.07c-.14.36-.5.48-.76.71-.57.49-1.17,1-1.76,1.42A.18.18,0,0,1,188.26,129Z" transform="translate(-84.41 -88.69)"/><path class="cls-29" d="M106.86,133.56a11.43,11.43,0,0,1,1.7.81c.5.19.94.54,1.46.7,0,0,0,.1.07.15a3,3,0,0,1-1.14-.46c-.64-.31-1.27-.66-1.9-1C107,133.71,106.85,133.69,106.86,133.56Z" transform="translate(-84.41 -88.69)"/><path class="cls-30" d="M168.34,146.25A5.08,5.08,0,0,1,169,145c.26-.5.51-1,.72-1.54.06-.14.09-.31.26-.37a3.2,3.2,0,0,1-.49,1.3c-.31.59-.66,1.16-1,1.74A.18.18,0,0,1,168.34,146.25Z" transform="translate(-84.41 -88.69)"/><path class="cls-31" d="M87,113.46c-.33.08-.65-.11-1-.06s-.69,0-1-.16a.18.18,0,0,0-.24,0c-.05.08,0,.16.05.23.18.27.46.47.53.82-.42-.23-.59-.67-.88-1-.11-.13.05-.22.2-.21A15.16,15.16,0,0,1,87,113.46Z" transform="translate(-84.41 -88.69)"/><path class="cls-32" d="M171.82,107.81a2.26,2.26,0,0,1-.83-.41,18.1,18.1,0,0,0-2-1.09s-.06-.09-.08-.14c.28-.07.46.13.67.24a19.69,19.69,0,0,1,2.08,1.2C171.76,107.67,171.83,107.71,171.82,107.81Z" transform="translate(-84.41 -88.69)"/><path class="cls-33" d="M115.74,108.17a3.49,3.49,0,0,1-1.06.81c-.49.34-1,.63-1.53.94a.38.38,0,0,1-.28.06c.2-.34.59-.4.88-.6.55-.37,1.1-.72,1.65-1.07C115.5,108.25,115.6,108.14,115.74,108.17Z" transform="translate(-84.41 -88.69)"/><path class="cls-34" d="M132.42,180.33c.59.14,1.09.5,1.66.69a8.34,8.34,0,0,1,.91.37c.09,0,.29,0,.26.16a.26.26,0,0,1-.3.24c.08-.19,0-.27-.19-.34a16,16,0,0,1-2.17-.95C132.5,180.46,132.42,180.44,132.42,180.33Z" transform="translate(-84.41 -88.69)"/><path class="cls-35" d="M192.84,125.19a18.76,18.76,0,0,1,2.35-2.16,10.05,10.05,0,0,1-1.42,1.46,3.57,3.57,0,0,1-.92.82A.08.08,0,0,1,192.84,125.19Z" transform="translate(-84.41 -88.69)"/><path class="cls-36" d="M199.54,118.33c.1-.45.47-.7.75-1s.57-.92,1.08-1.17a5,5,0,0,1-1,1.35C200.11,117.8,199.93,118.17,199.54,118.33Z" transform="translate(-84.41 -88.69)"/><path class="cls-37" d="M154,118l0,.73a13.76,13.76,0,0,1-.36,2.69.19.19,0,0,1-.17.17c-.09-.33.11-.61.17-.92.15-.82.19-1.65.28-2.48A1.13,1.13,0,0,1,154,118Z" transform="translate(-84.41 -88.69)"/><path class="cls-38" d="M185.19,131.2a4.26,4.26,0,0,1,1.25-.95c.35-.26.64-.63,1.12-.7-.14.31-.46.42-.71.59A7.24,7.24,0,0,1,185.19,131.2Z" transform="translate(-84.41 -88.69)"/><path class="cls-39" d="M179,111.65a9.78,9.78,0,0,1-2.16-.84c-.17-.08-.46,0-.52-.3.33-.06.55.2.83.3.58.21,1.12.5,1.72.67C179,111.5,179,111.54,179,111.65Z" transform="translate(-84.41 -88.69)"/><path class="cls-40" d="M88.18,117.81c.37.1.48.47.7.71A5.5,5.5,0,0,1,90,119.9a.28.28,0,0,1-.25-.13L88.22,118S88.19,117.87,88.18,117.81Z" transform="translate(-84.41 -88.69)"/><path class="cls-41" d="M97.56,127.21l.12,0a8.36,8.36,0,0,1,1.8,1.5A9.33,9.33,0,0,1,97.56,127.21Z" transform="translate(-84.41 -88.69)"/><path class="cls-42" d="M126.06,152.26c.26,0,.4.19.6.3l1.31.72c.12.06.29.08.29.27A6.85,6.85,0,0,1,126.06,152.26Z" transform="translate(-84.41 -88.69)"/><path class="cls-43" d="M123.74,150.59a9.48,9.48,0,0,1,1.46,1c.18.13.45.19.54.45A5.73,5.73,0,0,1,123.74,150.59Z" transform="translate(-84.41 -88.69)"/><path class="cls-25" d="M201.89,115.55c0-.27.21-.4.34-.56a6.76,6.76,0,0,1,1.14-1.36c0,.39-.36.61-.58.88A4.25,4.25,0,0,1,201.89,115.55Z" transform="translate(-84.41 -88.69)"/><path class="cls-37" d="M152.94,122.85a2.84,2.84,0,0,1-1.63,1.67,12.25,12.25,0,0,0,1.27-1.24C152.69,123.13,152.7,122.89,152.94,122.85Z" transform="translate(-84.41 -88.69)"/><path class="cls-44" d="M127.38,159.27c-.06.49-.47.77-.71,1.15s-.24.68-.58.86A5.27,5.27,0,0,1,127.38,159.27Z" transform="translate(-84.41 -88.69)"/><path class="cls-45" d="M136.78,124.5c-.21.06-.29-.12-.42-.22a7.42,7.42,0,0,1-1.09-1.14.54.54,0,0,1-.15-.47c.38.36.59.84,1,1.2C136.33,124.09,136.65,124.2,136.78,124.5Z" transform="translate(-84.41 -88.69)"/><path class="cls-46" d="M155.13,183.62c-.38-.16-.56-.55-.85-.81s-.54-.33-.63-.66c.06,0,.13,0,.16,0A4.69,4.69,0,0,1,155.13,183.62Z" transform="translate(-84.41 -88.69)"/><path class="cls-47" d="M157.47,179.28a9.78,9.78,0,0,1,1.19-1c.19-.18.34-.44.63-.48A4.54,4.54,0,0,1,157.47,179.28Z" transform="translate(-84.41 -88.69)"/><path class="cls-48" d="M192.84,125.19v.12a8.11,8.11,0,0,1-1.66,1.38c0-.21.19-.27.31-.38Z" transform="translate(-84.41 -88.69)"/><path class="cls-49" d="M159.47,153.72c.13-.28.43-.28.66-.39a4.51,4.51,0,0,1,1.17-.56A4.12,4.12,0,0,1,159.47,153.72Z" transform="translate(-84.41 -88.69)"/><path class="cls-50" d="M129.74,156.94c-.32.52-.89.78-1.29,1.22-.06,0-.1.15-.21.07A4,4,0,0,1,129.74,156.94Z" transform="translate(-84.41 -88.69)"/><path class="cls-51" d="M118.43,143.72s.07,0,.08,0a12.46,12.46,0,0,1,.87,1.82,3.17,3.17,0,0,1-.67-1.1C118.59,144.23,118.36,144,118.43,143.72Z" transform="translate(-84.41 -88.69)"/><path class="cls-51" d="M119.9,146.43c.31.06.37.37.53.57a2.45,2.45,0,0,1,.62.9A4.09,4.09,0,0,1,119.9,146.43Z" transform="translate(-84.41 -88.69)"/><path class="cls-52" d="M175.57,110.16a3.17,3.17,0,0,1-1.58-1A6.08,6.08,0,0,1,175.57,110.16Z" transform="translate(-84.41 -88.69)"/><path class="cls-53" d="M136.08,203.53a5,5,0,0,1,1.57,1A3.56,3.56,0,0,1,136.08,203.53Z" transform="translate(-84.41 -88.69)"/><path class="cls-54" d="M103.21,131.38a3.26,3.26,0,0,1,1.47,1A4.17,4.17,0,0,1,103.21,131.38Z" transform="translate(-84.41 -88.69)"/><path class="cls-55" d="M159.28,157.72a6.88,6.88,0,0,1-1.29-1.14,4.58,4.58,0,0,1,1.46,1.13A.11.11,0,0,1,159.28,157.72Z" transform="translate(-84.41 -88.69)"/><path class="cls-56" d="M91.05,121a2.83,2.83,0,0,1,1.12,1.14A3.53,3.53,0,0,1,91.05,121Z" transform="translate(-84.41 -88.69)"/><path class="cls-41" d="M100.68,129.56a4.68,4.68,0,0,1,1.5,1.12A4.5,4.5,0,0,1,100.68,129.56Z" transform="translate(-84.41 -88.69)"/><path class="cls-57" d="M134.76,182a3,3,0,0,1-1,1,.07.07,0,0,1-.11,0A3.24,3.24,0,0,1,134.76,182Z" transform="translate(-84.41 -88.69)"/><path class="cls-58" d="M160.17,176.85a4.7,4.7,0,0,1,.95-1.22A2.12,2.12,0,0,1,160.17,176.85Z" transform="translate(-84.41 -88.69)"/><path class="cls-44" d="M128.24,158.23l.21-.07c-.28.33-.45.76-.9.93A1.66,1.66,0,0,1,128.24,158.23Z" transform="translate(-84.41 -88.69)"/><path class="cls-26" d="M133.65,182.93h.11a3.19,3.19,0,0,1-1,1A2.94,2.94,0,0,1,133.65,182.93Z" transform="translate(-84.41 -88.69)"/><path class="cls-59" d="M118.88,106.35a3.27,3.27,0,0,1-1.31.69A2.54,2.54,0,0,1,118.88,106.35Z" transform="translate(-84.41 -88.69)"/><path class="cls-60" d="M166.67,148.41a4,4,0,0,1,.79-1,.08.08,0,0,1,0,.13,3,3,0,0,1-.69.86A.08.08,0,0,1,166.67,148.41Z" transform="translate(-84.41 -88.69)"/><path class="cls-52" d="M174,109.2a1.88,1.88,0,0,1-1.13-.71A3.15,3.15,0,0,1,174,109.2Z" transform="translate(-84.41 -88.69)"/><path class="cls-61" d="M166.67,148.41l.12,0a1.44,1.44,0,0,1-.81.76A2.89,2.89,0,0,1,166.67,148.41Z" transform="translate(-84.41 -88.69)"/><path class="cls-62" d="M150.15,204.65c.28-.29.68-.36,1-.59a.12.12,0,0,1,.19,0,3,3,0,0,1-1.05.61A.08.08,0,0,1,150.15,204.65Z" transform="translate(-84.41 -88.69)"/><path class="cls-63" d="M164,150.95a1.86,1.86,0,0,1,.86-.71A1.26,1.26,0,0,1,164,150.95Z" transform="translate(-84.41 -88.69)"/><path class="cls-53" d="M137.65,204.49a1.75,1.75,0,0,1,1,.52A1.78,1.78,0,0,1,137.65,204.49Z" transform="translate(-84.41 -88.69)"/><path class="cls-56" d="M90.35,120.16a2.6,2.6,0,0,1,.7.87,2.27,2.27,0,0,1-.7-.69A.12.12,0,0,1,90.35,120.16Z" transform="translate(-84.41 -88.69)"/><path class="cls-63" d="M164.86,150.24a1.69,1.69,0,0,1,.77-.71A1.29,1.29,0,0,1,164.86,150.24Z" transform="translate(-84.41 -88.69)"/><path class="cls-64" d="M161.27,175.27c.21-.27.2-.68.55-.86,0,.36-.26.6-.44.87A.08.08,0,0,1,161.27,175.27Z" transform="translate(-84.41 -88.69)"/><path class="cls-65" d="M151.32,204.07h-.19l.84-.53a.09.09,0,0,1,.13,0A2.11,2.11,0,0,1,151.32,204.07Z" transform="translate(-84.41 -88.69)"/><path class="cls-66" d="M159.28,157.72h.17a1.1,1.1,0,0,1,.55.68A2.72,2.72,0,0,1,159.28,157.72Z" transform="translate(-84.41 -88.69)"/><path class="cls-67" d="M167.47,147.56l0-.13a1.59,1.59,0,0,1,.55-.66A1.3,1.3,0,0,1,167.47,147.56Z" transform="translate(-84.41 -88.69)"/><path class="cls-41" d="M99.48,128.69a1,1,0,0,1,.69.54A1.15,1.15,0,0,1,99.48,128.69Z" transform="translate(-84.41 -88.69)"/><path class="cls-68" d="M152.11,203.55l-.13,0a1.91,1.91,0,0,1,.81-.5C152.68,203.35,152.35,203.39,152.11,203.55Z" transform="translate(-84.41 -88.69)"/><path class="cls-37" d="M153.29,122.06a.76.76,0,0,1-.35.78A1.37,1.37,0,0,1,153.29,122.06Z" transform="translate(-84.41 -88.69)"/><path class="cls-49" d="M157.46,154.59a1.36,1.36,0,0,1,.89-.34A1.14,1.14,0,0,1,157.46,154.59Z" transform="translate(-84.41 -88.69)"/><path class="cls-69" d="M150.15,204.65l.12,0a1.15,1.15,0,0,1-.8.34A1.29,1.29,0,0,1,150.15,204.65Z" transform="translate(-84.41 -88.69)"/><path class="cls-45" d="M137.46,124.87a.69.69,0,0,1-.68-.36A.85.85,0,0,1,137.46,124.87Z" transform="translate(-84.41 -88.69)"/><path class="cls-70" d="M104.86,132.43c.26.09.56.14.71.42A.94.94,0,0,1,104.86,132.43Z" transform="translate(-84.41 -88.69)"/><path class="cls-54" d="M102.69,131a.48.48,0,0,1,.52.35A.55.55,0,0,1,102.69,131Z" transform="translate(-84.41 -88.69)"/><path class="cls-70" d="M105.57,132.86c.31-.06.45.16.6.36A.82.82,0,0,1,105.57,132.86Z" transform="translate(-84.41 -88.69)"/><path class="cls-49" d="M161.3,152.77a.64.64,0,0,1,.54-.34A.5.5,0,0,1,161.3,152.77Z" transform="translate(-84.41 -88.69)"/><path class="cls-53" d="M135.55,203.19a.49.49,0,0,1,.53.34A.66.66,0,0,1,135.55,203.19Z" transform="translate(-84.41 -88.69)"/><path class="cls-51" d="M131,107.83a.83.83,0,0,1-.44-.52C130.9,107.35,130.94,107.6,131,107.83Z" transform="translate(-84.41 -88.69)"/><path class="cls-71" d="M134.6,121.2a.72.72,0,0,1-.17-.7A.76.76,0,0,1,134.6,121.2Z" transform="translate(-84.41 -88.69)"/><path class="cls-47" d="M156.94,179.62c.09-.24.31-.29.53-.34A.58.58,0,0,1,156.94,179.62Z" transform="translate(-84.41 -88.69)"/><path class="cls-40" d="M90.35,120.16v.17c-.14-.12-.34-.2-.35-.44C90.19,119.9,90.27,120,90.35,120.16Z" transform="translate(-84.41 -88.69)"/><path class="cls-58" d="M161.27,175.27h.11c0,.15-.05.32-.27.34C161.11,175.48,161.1,175.33,161.27,175.27Z" transform="translate(-84.41 -88.69)"/><path class="cls-71" d="M134.77,121.74c-.22-.13-.19-.33-.16-.53C134.84,121.33,134.78,121.54,134.77,121.74Z" transform="translate(-84.41 -88.69)"/><path class="cls-10" d="M149.27,125.23a.65.65,0,0,1-.64.13A1.11,1.11,0,0,1,149.27,125.23Z" transform="translate(-84.41 -88.69)"/><path class="cls-72" d="M151.36,177.7c-.08,0-.19,0-.26.07a5.77,5.77,0,0,1-1.36.29,1.41,1.41,0,0,0-.46.08h0a10.12,10.12,0,0,1-1.11.16h-.28a7.55,7.55,0,0,1-1.4.08c-.22,0-.3-.11-.33-.32a4.3,4.3,0,0,1,0-.91c.11-3.08.24-6.15.23-9.23,0-1.47.13-2.95.13-4.42s.07-3,.1-4.46c0-.42.06-.83.06-1.25s0-.58.6-.57a1,1,0,0,1,.26,0,18.31,18.31,0,0,1,5.82,1.36,10.47,10.47,0,0,1,3.8,2.66,6.58,6.58,0,0,1,.51.62l.27.42a8.61,8.61,0,0,1,1.12,2.21c.12.3.17.63.27.94.09.59.16,1.19.22,1.78a24.07,24.07,0,0,1,0,2.41c0,.32-.2.6-.17.92a9.18,9.18,0,0,1-1,2.35h0c-.13.16-.21.36-.34.53h0c-.13.16-.23.34-.36.51h0a13.86,13.86,0,0,1-1.13,1.14,6.54,6.54,0,0,1-1.4,1,8.1,8.1,0,0,1-1.15.67,17.72,17.72,0,0,1-2.14.81A2.63,2.63,0,0,0,151.36,177.7Z" transform="translate(-84.41 -88.69)"/><path class="cls-72" d="M146.93,153.3a2.25,2.25,0,0,1-.12-1.43c.12-2.05.1-4.1.16-6.15.08-2.64.17-5.29.16-7.93,0-.09,0-.17,0-.26s0-.22,0-.32.11-.27.3-.19.37.06.52.2c.33.11.64.24,1,.34a32.69,32.69,0,0,0,5.7,1.35,38.32,38.32,0,0,0,6.1.39,36.47,36.47,0,0,0,5.83-.5c.56-.1.61,0,.48.52a12,12,0,0,1-1.25,3.28,5.52,5.52,0,0,1-.53,1h0a13.79,13.79,0,0,1-.95,1.31h0c-.19.22-.34.47-.54.68l-.87.87c-.39.42-.86.77-1.28,1.15a25,25,0,0,1-2.88,2l-1,.52a33.1,33.1,0,0,1-4.73,1.88A40.37,40.37,0,0,1,146.93,153.3Z" transform="translate(-84.41 -88.69)"/><path class="cls-72" d="M153,187.55l.26.44a6.29,6.29,0,0,1,.95,2.07,7.49,7.49,0,0,1,.19,3.34,8,8,0,0,1-1.42,3.43c-.09.12-.14.25-.23.37a19.36,19.36,0,0,1-1.66,1.81c-.54.48-1.14.9-1.72,1.32l-.28.15c-.07.12-.24.12-.32.23s-.36.21-.55.3-.22.12-.33.18a4.55,4.55,0,0,1-1.26.48c-.83.3-.94.23-.92-.64,0-1.92.07-3.85.1-5.77,0-1.72.06-3.44.19-5.16s0-3.47.11-5.21c0-.64,0-1.27,0-1.91,0-.16,0-.32.2-.39a2.76,2.76,0,0,1,1.19.44,13.87,13.87,0,0,1,1.39.77l.78.51a9.22,9.22,0,0,1,1.39,1.14l.28.24a1.46,1.46,0,0,1,.65.53c.23.32.51.61.76.92C152.91,187.25,153,187.37,153,187.55Z" transform="translate(-84.41 -88.69)"/><path class="cls-73" d="M147.5,157.26c-.73,0-.7.05-.74.81-.13,2.4-.08,4.8-.19,7.19-.11,2.63-.08,5.26-.17,7.89,0,1.57-.14,3.15-.15,4.72,0,.19-.07.42.21.49-.1.14-.21.22-.39.13a10.39,10.39,0,0,1,0-2.62,18.54,18.54,0,0,1,.07-2.85c.3-2,.05-3.92.16-5.87,0-.86,0-1.72,0-2.59a1.62,1.62,0,0,1,.14-1,.49.49,0,0,0,0-.46,1.18,1.18,0,0,1,0-1.07.94.94,0,0,0,.07-.42c0-.91,0-1.82,0-2.73,0-.47.07-.95.07-1.42a.45.45,0,0,1,.21-.36C147,157.29,147.26,157.14,147.5,157.26Z" transform="translate(-84.41 -88.69)"/><path class="cls-74" d="M146.51,182.66c-.33,0-.26.25-.26.43,0,1.93.08,3.86,0,5.78s-.15,4-.26,5.92c-.06,1.22-.06,2.43-.05,3.64,0,.91-.1,1.82-.09,2.73,0,.6.09.66.64.48a1.46,1.46,0,0,1,.3,0q.08,0,0,.09L146,202c-.16,0-.32.12-.47,0l.52-19.47a.27.27,0,0,1,.32,0C146.48,182.49,146.55,182.55,146.51,182.66Z" transform="translate(-84.41 -88.69)"/><path class="cls-75" d="M147.47,137c-.41,0-.16.39-.34.51a11.55,11.55,0,0,1-.07-3.13,8.42,8.42,0,0,0,0-1.41c0-1.28.08-2.57.14-3.85,0-1.07,0-2.13.07-3.2a4.93,4.93,0,0,1,.08-.55l.24,0a1.1,1.1,0,0,0-.15.65c0,1.53.07,3.07,0,4.6-.13,1.89-.13,3.78-.16,5.67A1.06,1.06,0,0,0,147.47,137Z" transform="translate(-84.41 -88.69)"/><path class="cls-76" d="M152.77,197.19a6.66,6.66,0,0,1,.76-1.37,7.74,7.74,0,0,0-.16-7.6,1.69,1.69,0,0,1-.09-.24c.35.06.39.41.5.63a8.26,8.26,0,0,1,.82,3.78,8.45,8.45,0,0,1-1.67,4.73S152.82,197.17,152.77,197.19Z" transform="translate(-84.41 -88.69)"/><path class="cls-77" d="M145.56,202l.47,0a.56.56,0,0,0-.39.63c0,1.1,0,2.19,0,3.29a.63.63,0,0,0,.07.42l-.26.24a1.93,1.93,0,0,1-.07-1c0-1.11,0-2.22.09-3.32C145.48,202.17,145.45,202,145.56,202Z" transform="translate(-84.41 -88.69)"/><path class="cls-78" d="M146.4,182.49h-.32a10.06,10.06,0,0,1,0-2.49c0-.5,0-1,0-1.52l.39-.13a9.08,9.08,0,0,1,1.42,0,3.07,3.07,0,0,1-1.22.17c-.29,0-.41.1-.42.4a26.17,26.17,0,0,1-.07,2.86.64.64,0,0,0,.41.72C146.54,182.56,146.47,182.54,146.4,182.49Z" transform="translate(-84.41 -88.69)"/><path class="cls-79" d="M159.29,165.46c-.28-.14-.18-.44-.25-.66a18.18,18.18,0,0,0-1.14-2.48c.37.16.45.54.61.84a10.43,10.43,0,0,1,.74,1.84A.86.86,0,0,1,159.29,165.46Z" transform="translate(-84.41 -88.69)"/><path class="cls-80" d="M146.4,182.49l.19,0a22.79,22.79,0,0,1,2.21,1.14c.08,0,.15.08.14.18-.29,0-.46-.21-.68-.33-.57-.3-1.16-.57-1.76-.81Z" transform="translate(-84.41 -88.69)"/><path class="cls-81" d="M151.36,177.7l2.61-1a.15.15,0,0,1,.19,0,10.39,10.39,0,0,1-2.29.9A1.53,1.53,0,0,1,151.36,177.7Z" transform="translate(-84.41 -88.69)"/><path class="cls-82" d="M153,187.55a16,16,0,0,0-1.62-1.86.36.36,0,0,1,.42.12l1.2,1.49C153.09,187.38,153.16,187.46,153,187.55Z" transform="translate(-84.41 -88.69)"/><path class="cls-83" d="M158.34,172.93c.23-.58.44-1.16.71-1.72.1-.21-.06-.51.25-.63A4.36,4.36,0,0,1,158.34,172.93Z" transform="translate(-84.41 -88.69)"/><path class="cls-84" d="M149.39,200.32a.44.44,0,0,1,.24-.29,6.75,6.75,0,0,0,1.18-.92.31.31,0,0,1,.3-.12A4.69,4.69,0,0,1,149.39,200.32Z" transform="translate(-84.41 -88.69)"/><path class="cls-85" d="M151.12,185.45a7.87,7.87,0,0,1-1.39-1.14A2.82,2.82,0,0,1,151.12,185.45Z" transform="translate(-84.41 -88.69)"/><path class="cls-86" d="M164.34,144.85a4.72,4.72,0,0,1,.95-1.31A2.45,2.45,0,0,1,164.34,144.85Z" transform="translate(-84.41 -88.69)"/><path class="cls-87" d="M161.65,147.55a5,5,0,0,1,1.28-1.15A3.29,3.29,0,0,1,161.65,147.55Z" transform="translate(-84.41 -88.69)"/><path class="cls-24" d="M149.29,178.14a8,8,0,0,1,1.82-.37c-.35.35-.85.22-1.27.37A1.68,1.68,0,0,1,149.29,178.14Z" transform="translate(-84.41 -88.69)"/><path class="cls-88" d="M156.51,175.1a4.08,4.08,0,0,1,1.13-1.14A2.56,2.56,0,0,1,156.51,175.1Z" transform="translate(-84.41 -88.69)"/><path class="cls-89" d="M146.77,201.71v-.09a3.75,3.75,0,0,1,1.15-.44A2,2,0,0,1,146.77,201.71Z" transform="translate(-84.41 -88.69)"/><path class="cls-90" d="M154.16,176.75H154a4.31,4.31,0,0,1,1.14-.62C154.9,176.51,154.5,176.58,154.16,176.75Z" transform="translate(-84.41 -88.69)"/><path class="cls-91" d="M157.81,150.06a1.56,1.56,0,0,1,1-.52A1.69,1.69,0,0,1,157.81,150.06Z" transform="translate(-84.41 -88.69)"/><path class="cls-86" d="M165.28,143.54a2.59,2.59,0,0,1,.53-1A1.26,1.26,0,0,1,165.28,143.54Z" transform="translate(-84.41 -88.69)"/><path class="cls-78" d="M148.17,178.31a2.47,2.47,0,0,1,1.11-.16A1.64,1.64,0,0,1,148.17,178.31Z" transform="translate(-84.41 -88.69)"/><path class="cls-92" d="M149,137.55a1.57,1.57,0,0,1-1-.34A1.4,1.4,0,0,1,149,137.55Z" transform="translate(-84.41 -88.69)"/><path class="cls-86" d="M163.8,145.54a1.11,1.11,0,0,1,.54-.68A.88.88,0,0,1,163.8,145.54Z" transform="translate(-84.41 -88.69)"/><path class="cls-93" d="M157.63,161.9a1.07,1.07,0,0,1-.51-.62A.74.74,0,0,1,157.63,161.9Z" transform="translate(-84.41 -88.69)"/><path class="cls-83" d="M158,173.46c0-.22.1-.43.34-.53A.5.5,0,0,1,158,173.46Z" transform="translate(-84.41 -88.69)"/><path class="cls-83" d="M157.64,174c0-.28.17-.39.36-.51A.5.5,0,0,1,157.64,174Z" transform="translate(-84.41 -88.69)"/><path class="cls-89" d="M148.24,201a.66.66,0,0,1,.53-.35c.06.1,0,.13-.09.18S148.44,201.08,148.24,201Z" transform="translate(-84.41 -88.69)"/><path class="cls-94" d="M148.69,200.83l.09-.18c0-.19.21-.16.34-.19C149.09,200.73,148.88,200.77,148.69,200.83Z" transform="translate(-84.41 -88.69)"/><path class="cls-72" d="M141.21,157.26l.08,0c.15.33,0,.68.08,1a14.28,14.28,0,0,1,.05,2c0,3.56.2,7.11.26,10.67,0,1.53.13,3.06.09,4.6a16.06,16.06,0,0,0,.08,2.25c0,.4-.12.59-.51.57a26.19,26.19,0,0,1-3.14-.33.41.41,0,0,1-.12-.06h0c-.25-.13-.54,0-.78-.17h-.08c-.19-.13-.43-.06-.62-.17h-.16a14.64,14.64,0,0,1-2.95-1.18c-.24-.13-.46-.3-.7-.42s-.37-.25-.54-.39l-.18-.16a7.92,7.92,0,0,1-1.81-1.84,9.92,9.92,0,0,1-1.53-7.12,9.45,9.45,0,0,1,1.7-4.45,7.69,7.69,0,0,1,1-1.13c.12-.22.41-.28.52-.52a20.53,20.53,0,0,1,2.19-1.46c.77-.29,1.5-.66,2.29-.89A18,18,0,0,1,141.21,157.26Z" transform="translate(-84.41 -88.69)"/><path class="cls-72" d="M127.4,148.23a17,17,0,0,1-5.23-6,14.78,14.78,0,0,1-1.09-3c-.11-.42,0-.54.45-.46a37.79,37.79,0,0,0,7.3.52,35.73,35.73,0,0,0,7.17-.84c1.3-.29,2.56-.68,3.83-1.07a4.63,4.63,0,0,1,.85-.2.25.25,0,0,1,.1.12,9,9,0,0,1,0,1.47,21.72,21.72,0,0,0,0,2.82c.13.92.08,1.84.18,2.75,0,.46,0,.93,0,1.39,0,2.23.19,4.45.13,6.68a1.74,1.74,0,0,1,0,.52c-.07.21-.21.36-.45.29-.73-.21-1.5-.25-2.24-.44a9.51,9.51,0,0,1-1.84-.4,29.84,29.84,0,0,1-3.62-1.17c-.76-.31-1.51-.65-2.27-1a29.27,29.27,0,0,1-2.79-1.61C127.77,148.45,127.56,148.38,127.4,148.23Z" transform="translate(-84.41 -88.69)"/><path class="cls-72" d="M141.92,182.49c.13,1.8.17,3.59.16,5.39a.42.42,0,0,1,0,.25c0,1.53.07,3.07,0,4.6,0,.64.06,1.27,0,1.91,0,1.7,0,3.4,0,5.1a.85.85,0,0,0,.08.5,3.07,3.07,0,0,1,0,1.35c0,.28-.2.36-.55.23a9.39,9.39,0,0,1-1.36-.62,7.36,7.36,0,0,1-1.37-.72,13.84,13.84,0,0,1-2.79-2.26h0a8.31,8.31,0,0,1-1.13-1.39h0a13.06,13.06,0,0,1-.7-1.22,8.2,8.2,0,0,1-.66-4.85,9.59,9.59,0,0,1,.82-2.44c.17-.14.19-.37.36-.52h0a10,10,0,0,1,1.14-1.48l.69-.69c.37-.33.75-.64,1.13-1l.51-.36a3.24,3.24,0,0,0,.52-.35h0a2.43,2.43,0,0,0,.53-.34l1.83-1C141.54,182.67,141.68,182.38,141.92,182.49Z" transform="translate(-84.41 -88.69)"/><path class="cls-95" d="M138.44,152.78a12.6,12.6,0,0,1,2.12.34c.33.07.48,0,.48-.34,0-1.69,0-3.38-.06-5.07-.07-1.12,0-2.25,0-3.38,0,0,0-.05,0-.08,0-1.36-.13-2.71-.13-4.07,0-.93-.08-1.85,0-2.78a.23.23,0,0,0-.06-.2h-.08a.22.22,0,0,1-.28,0c.06-.13.19-.15.3-.18s.22-.08.31,0c0,1.69,0,3.38.12,5.07s0,3.5.08,5.24.18,3.66.16,5.5c0,.16.08.36-.15.45-.85,0-1.66-.31-2.5-.39A.22.22,0,0,1,138.44,152.78Z" transform="translate(-84.41 -88.69)"/><path class="cls-96" d="M138.08,178a12,12,0,0,1,1.75.21c.55.07,1.1,0,1.64.06.29,0,.34-.19.32-.41-.14-1.57,0-3.15-.09-4.72-.14-2.32-.1-4.65-.18-7-.08-2.11-.12-4.22-.15-6.33,0-.84-.06-1.67-.09-2.51.15,0,.16.07.17.19,0,1.76,0,3.52,0,5.28.07,2,.11,4,.17,6,.08,2.57.15,5.14.16,7.71a16.88,16.88,0,0,1,.05,1.95.17.17,0,0,1-.17.08c-1.14-.1-2.27-.18-3.4-.35A.26.26,0,0,1,138.08,178Z" transform="translate(-84.41 -88.69)"/><path class="cls-97" d="M140.94,137l-.31,0a1,1,0,0,0,.14-.62c0-2.05,0-4.11-.11-6.16-.06-1.39,0-2.77-.07-4.16a1.23,1.23,0,0,0-.17-.69l.25,0a39,39,0,0,1,.18,6.16c0,1.34.12,2.68.11,4A5.37,5.37,0,0,1,140.94,137Z" transform="translate(-84.41 -88.69)"/><path class="cls-98" d="M140.42,201.21a8.88,8.88,0,0,1,1.23.5c.49.17.57.13.62-.37a4.27,4.27,0,0,0,0-1c-.13-.16-.09-.36-.09-.54,0-1.52,0-3,0-4.56a.82.82,0,0,0-.08-.55q0-3.17,0-6.34c0-.14,0-.29,0-.43.09.08.07.18.07.28,0,1.57.07,3.14.11,4.72.07,2.62.17,5.25.21,7.87a2.68,2.68,0,0,1-.12,1.27A4.47,4.47,0,0,1,140.42,201.21Z" transform="translate(-84.41 -88.69)"/><path class="cls-99" d="M141.72,178.49l.17-.08a16.53,16.53,0,0,1,.19,3.78c0,.12,0,.27-.16.3s-.37.23-.61.16c.39-.18.47-.46.44-.9C141.69,180.66,141.72,179.58,141.72,178.49Z" transform="translate(-84.41 -88.69)"/><path class="cls-100" d="M132.79,176a18.83,18.83,0,0,0,2.52,1.2c.28.11.57.19.85.28.11,0,.24,0,.27.17-.46.12-.82-.21-1.23-.3a8.33,8.33,0,0,1-2.4-1.18.28.28,0,0,1-.12-.16A.07.07,0,0,1,132.79,176Z" transform="translate(-84.41 -88.69)"/><path class="cls-101" d="M136.26,198.23a10.24,10.24,0,0,1,1.14,1c.56.42,1.1.86,1.65,1.29-.26.07-.39-.16-.56-.27a15.87,15.87,0,0,1-2.08-1.66C136.31,198.46,136.22,198.38,136.26,198.23Z" transform="translate(-84.41 -88.69)"/><path class="cls-102" d="M127.93,148.58l2.7,1.55s0,.07.07.1c-.25.08-.42-.12-.59-.21a14.75,14.75,0,0,1-2.31-1.42A.08.08,0,0,1,127.93,148.58Z" transform="translate(-84.41 -88.69)"/><path class="cls-103" d="M130.26,173.63a7.31,7.31,0,0,1,1.05,1.11c.25.25.62.37.76.73a3.91,3.91,0,0,1-1.43-1.19A1,1,0,0,1,130.26,173.63Z" transform="translate(-84.41 -88.69)"/><path class="cls-104" d="M134.1,158.95s0,0,0,0a20.16,20.16,0,0,1-2.19,1.42,2,2,0,0,1,.75-.66A4.93,4.93,0,0,1,134.1,158.95Z" transform="translate(-84.41 -88.69)"/><path class="cls-101" d="M135.13,196.83c.27.07.35.34.46.53s.58.48.67.87A2.66,2.66,0,0,1,135.13,196.83Z" transform="translate(-84.41 -88.69)"/><path class="cls-105" d="M136.09,186.32A7.78,7.78,0,0,1,135,187.8,2.84,2.84,0,0,1,136.09,186.32Z" transform="translate(-84.41 -88.69)"/><path class="cls-104" d="M131.38,160.93a3.8,3.8,0,0,1-1,1.13A1.85,1.85,0,0,1,131.38,160.93Z" transform="translate(-84.41 -88.69)"/><path class="cls-106" d="M137.92,184.68a2.89,2.89,0,0,1-1.13,1A2.59,2.59,0,0,1,137.92,184.68Z" transform="translate(-84.41 -88.69)"/><path class="cls-107" d="M134.44,195.61a3.08,3.08,0,0,1,.7,1.22A2.34,2.34,0,0,1,134.44,195.61Z" transform="translate(-84.41 -88.69)"/><path class="cls-108" d="M138.95,184a.47.47,0,0,1-.52.35A.46.46,0,0,1,138.95,184Z" transform="translate(-84.41 -88.69)"/><path class="cls-108" d="M139.48,183.63c-.11.22-.25.39-.53.34A.57.57,0,0,1,139.48,183.63Z" transform="translate(-84.41 -88.69)"/><path class="cls-109" d="M127.93,148.58l-.12,0c-.17-.08-.37-.14-.41-.36A.6.6,0,0,1,127.93,148.58Z" transform="translate(-84.41 -88.69)"/><path class="cls-96" d="M137.29,177.8a1,1,0,0,1,.78.17C137.81,178,137.51,178.08,137.29,177.8Z" transform="translate(-84.41 -88.69)"/><path class="cls-110" d="M140.33,137.19l.28,0a1.31,1.31,0,0,1-.78.16C139.94,137.16,140.15,137.22,140.33,137.19Z" transform="translate(-84.41 -88.69)"/><path class="cls-103" d="M132.79,176l-.12,0a.6.6,0,0,1-.43-.35A.63.63,0,0,1,132.79,176Z" transform="translate(-84.41 -88.69)"/><path class="cls-105" d="M135,187.8c0,.23-.09.44-.36.52C134.68,188.12,134.68,187.87,135,187.8Z" transform="translate(-84.41 -88.69)"/><path class="cls-96" d="M136.6,177.63c.22,0,.46-.07.62.17A.63.63,0,0,1,136.6,177.63Z" transform="translate(-84.41 -88.69)"/><path class="cls-17" d="M133.29,105.56a2.67,2.67,0,0,1-.52-1.39A4.06,4.06,0,0,1,133.29,105.56Z" transform="translate(-84.41 -88.69)"/><path class="cls-17" d="M133.74,106.43a1.41,1.41,0,0,1-.44-.87C133.49,105.82,133.76,106.05,133.74,106.43Z" transform="translate(-84.41 -88.69)"/><path class="cls-110" d="M140.68,137.21a.21.21,0,0,1,.1.22,20.78,20.78,0,0,0,.1,2.37c.07,1.51.09,3,.07,4.53-.17-.28-.05-.59-.08-.89C140.64,141.37,140.7,139.29,140.68,137.21Z" transform="translate(-84.41 -88.69)"/><path class="cls-111" d="M142.08,194.66c.23.06.16.25.16.39q0,2.63,0,5.26c-.22,0-.17-.2-.17-.33Q142.08,197.32,142.08,194.66Z" transform="translate(-84.41 -88.69)"/><path d="M209.84,92.34a130.26,130.26,0,0,1,24.56-2.16c13.44,0,22.09,2.32,28.58,7.57,5.41,4,8.65,10.19,8.65,18.38,0,10-6.64,18.84-17.61,22.86v.31c9.89,2.47,21.47,10.66,21.47,26.1a28.06,28.06,0,0,1-8.8,20.85c-7.26,6.64-19,9.73-36,9.73a157,157,0,0,1-20.85-1.24ZM223.28,135h12.2c14.21,0,22.55-7.41,22.55-17.45,0-12.2-9.27-17-22.86-17a57.65,57.65,0,0,0-11.89.93Zm0,49.89a71.8,71.8,0,0,0,11.28.62c13.9,0,26.72-5.1,26.72-20.23,0-14.21-12.2-20.08-26.88-20.08H223.28Z" transform="translate(-84.41 -88.69)"/><path d="M295.61,138.07v57h-7.36v-57Z" transform="translate(-84.41 -88.69)"/><path d="M401.51,149.34c-.77-14.52-1.7-32-1.54-44.95h-.46c-3.55,12.2-7.88,25.18-13.13,39.54L368,194.45H357.8L341,144.86c-4.94-14.67-9.11-28.11-12-40.47h-.31c-.31,13-1.08,30.43-2,46l-2.78,44.64H311L318.25,91H335.4l17.76,50.36c4.32,12.82,7.88,24.25,10.5,35.06h.46c2.63-10.5,6.33-21.93,11-35.06L393.63,91h17.15l6.49,104.11H404.14Z" transform="translate(-84.41 -88.69)"/><path d="M436.11,178.69a47.62,47.62,0,0,0,24.1,6.8c13.75,0,21.78-7.26,21.78-17.76,0-9.73-5.56-15.29-19.62-20.7-17-6-27.49-14.83-27.49-29.5,0-16.22,13.44-28.27,33.67-28.27,10.66,0,18.38,2.47,23,5.1l-3.71,11a41.47,41.47,0,0,0-19.77-4.94c-14.21,0-19.62,8.5-19.62,15.6,0,9.73,6.33,14.52,20.7,20.08,17.61,6.8,26.57,15.29,26.57,30.58,0,16.06-11.89,30-36.45,30-10,0-21-2.93-26.57-6.64Z" transform="translate(-84.41 -88.69)"/><text class="cls-112" transform="translate(116.69 137.59)">B<tspan class="cls-113" x="11.17" y="0">r</tspan><tspan x="17.99" y="0">ig</tspan><tspan class="cls-114" x="34.32" y="0">h</tspan><tspan class="cls-115" x="45.67" y="0">t </tspan><tspan class="cls-116" x="56.86" y="0">I</tspan><tspan x="61.99" y="0">nstitu</tspan><tspan class="cls-117" x="111.39" y="0">t</tspan><tspan x="118.09" y="0">e of </tspan><tspan class="cls-118" x="154.47" y="0">M</tspan><tspan x="171.16" y="0">edical </tspan><tspan class="cls-119" x="226.31" y="0">S</tspan><tspan x="236.59" y="0">cien</tspan><tspan class="cls-120" x="272.4" y="0">c</tspan><tspan x="281.51" y="0">es</tspan></text><line class="cls-121" x1="119.3" y1="113.99" x2="413.04" y2="113.99"/></svg>